<svg id="Letras_Trazo_copia" data-name="Letras Trazo copia" xmlns="http://www.w3.org/2000/svg" viewBox="0 0 1077.79 596.54"><defs><style>.cls-1{fill:#fff;}</style></defs><path class="cls-1" d="M155.67,247.06l3.84,8.25,4-8.25,71.3-133.51h9.74l-80.74,149v91.26h-8.12V262.57l-80.74-149h9.74Z"/><path class="cls-1" d="M434.51,353.83h-8L288.67,130.06l-.89.33V353.83h-8.12V113.55h8.12L425.65,336.83l.89-.33V113.55h8Z"/><path class="cls-1" d="M589.65,320.82A66,66,0,0,1,565,347.14q-16.38,10.16-39.7,10.15-22.29,0-35-13.61T477.61,307q0-22.44,19-37.63T544,254.15h45.62V228.08q0-22.28-12.77-34.74t-36-12.46q-21.69,0-34.9,11.72t-13.22,30.2l-6.64-.33-.29-.83q-.88-20.79,14.46-35.23T540.93,172q25.7,0,41.19,14.52t15.5,41.92v89.44a171,171,0,0,0,1,18.32,125.51,125.51,0,0,0,3.17,17.66h-8.86q-1.92-11.71-2.58-17.58a112.91,112.91,0,0,1-.66-12.62Zm-64.36,27.73q23.76,0,40.22-11.72t24.14-33.5v-40.1H544.48q-24.81,0-41.85,12.79t-17.05,31.6q0,18,10.85,29.46T525.29,348.55Z"/><path class="cls-1" d="M749.21,320.82a65.9,65.9,0,0,1-24.65,26.32q-16.38,10.16-39.71,10.15-22.29,0-35-13.61T637.18,307q0-22.44,19-37.63t47.45-15.18h45.61V228.08q0-22.28-12.77-34.74T700.5,180.88q-21.69,0-34.91,11.72t-13.21,30.2l-6.64-.33-.3-.83q-.88-20.79,14.47-35.23T700.5,172q25.69,0,41.19,14.52t15.49,41.92v89.44a171,171,0,0,0,1,18.32,127,127,0,0,0,3.18,17.66h-8.86q-1.92-11.71-2.58-17.58a112.81,112.81,0,0,1-.67-12.62Zm-64.36,27.73q23.77,0,40.23-11.72t24.13-33.5v-40.1H704q-24.79,0-41.84,12.79t-17.05,31.6q0,18,10.85,29.46T684.85,348.55Z"/><path class="cls-1" d="M879,181.71l-10.33-1q-21.4,0-34.76,15.43t-17.35,40.68v117h-8V175.27h6.5l1.47,31v6.1q6.65-19.14,19.78-29.78T868.63,172a31.53,31.53,0,0,1,6.27.58,48.06,48.06,0,0,1,5,1.24Z"/><path class="cls-1" d="M1009.9,320.82a66,66,0,0,1-24.66,26.32q-16.38,10.16-39.7,10.15-22.29,0-35-13.61T897.86,307q0-22.44,19-37.63t47.45-15.18h45.62V228.08q0-22.28-12.77-34.74t-36-12.46q-21.69,0-34.91,11.72t-13.21,30.2l-6.64-.33-.3-.83q-.89-20.79,14.47-35.23T961.18,172q25.7,0,41.19,14.52t15.5,41.92v89.44a168.45,168.45,0,0,0,1,18.32,125.51,125.51,0,0,0,3.17,17.66h-8.86q-1.92-11.71-2.58-17.58a112.91,112.91,0,0,1-.66-12.62Zm-64.36,27.73q23.76,0,40.22-11.72t24.14-33.5v-40.1H964.73q-24.81,0-41.85,12.79t-17,31.6q0,18,10.85,29.46T945.54,348.55Z"/><path class="cls-1" d="M63.23,512.34q-32.36,24.9-47.42,24.9-8.1,0-12-7.88a38.18,38.18,0,0,1-3.86-17q0-17.57,14.89-52.72t28.49-35.14q7,0,11.94,27.46t10.11,39.9q25-26.35,72.42-87.86,59.55-78,79-85.3a37.4,37.4,0,0,1,13.61-2.57A21.16,21.16,0,0,1,242.06,319q4.6,2.94,4.6,7.32c0,4.16-3.56,6.59-10.66,7.33q-12.87,7-39.7,33.68-26.84,26-43,48.69-39.34,54.56-80.87,89Q93,535.4,137.11,535.41q4.78,0,14.34-.74,102.2-9.52,144.84-88.23,17.26-31.47,17.27-62.23t-22.42-55.28Q273.13,308.8,252,304a196.19,196.19,0,0,0-43.19-4.76q-56.62,0-104.4,26Q54,352.72,54,386.77q0,9.15,5,15t6.8,6.59H63.59a31.16,31.16,0,0,1-16.91-9.52q-8.09-9.51-8.08-20.13,0-36.62,46.13-63T193,289.39A275.23,275.23,0,0,1,251.81,296q30.13,6.58,54.77,31.48,28.31,29.3,28.3,66.27,0,27.45-16.17,56.74Q290.77,501,235.26,524.42q-44.47,18.68-95.94,18.67T63.23,512.34Zm-50-1.46a42.08,42.08,0,0,0,4.41,19.77q15.81-7,38.23-28.93-10.66-17.57-13.41-27.64T38.6,447.54Q13.24,483.78,13.23,510.88ZM65.8,408.37a1.07,1.07,0,0,0,.74-.37c0,.5-.07.74-.19.74S66,408.62,65.8,408.37Z"/><path class="cls-1" d="M351.79,526.25a23.25,23.25,0,0,1-7.35-1.09q-23.52-6.6-23.53-26.36,0-25.62,32.35-59.31t58.08-33.68q8.46,0,13.79,4.57a14.22,14.22,0,0,1,5.33,11.17q0,20.51-31.06,39.17t-50.55,18.67a16.28,16.28,0,0,1-5.15-.73,42.28,42.28,0,0,0-5.51,20.87q0,19,18.2,19T403.62,494A234.24,234.24,0,0,0,441.85,456c2.21-2.93,4.1-4.39,5.7-4.39s2.39.73,2.39,2.2-1,3.54-2.94,6.22a225.73,225.73,0,0,1-47.79,46.13Q371.27,526.25,351.79,526.25Zm69.48-105.43q0-4.4-9.38-4.4T385.24,430.7q-23.16,19-36,39.91a15,15,0,0,0,4.78.73q14,0,37.31-14.83t29.22-32.4A9,9,0,0,0,421.27,420.82Z"/><path class="cls-1" d="M495.15,516q-10.66,6.22-26.28,6.23T445,512q-8.27-10.25-14.15-32.59-6.61,6.6-9.19,6.59c-1.22,0-1.84-.85-1.84-2.56a6,6,0,0,1,1.84-4.39q12.14-15,41.17-43.2l46.32-43.2Q529,374,532.65,374q11.75,0,11.76,8.78a13.47,13.47,0,0,1-3.49,8.61c-2.34,2.81-4,5-5.15,6.59s-2.27,3.11-3.49,4.57q-6.62,11.36-13.42,46.86T508.38,498.8q30.51-.36,62.86-39.54,3.68-3.66,5.52-3.66c1.22,0,1.84.79,1.84,2.38s-1.11,3.72-3.31,6.4q-21.33,24.9-39.71,34.78-11,5.49-28.67,9.15Zm-49.63-40.64q0,12.47,8.27,20.32t18.57,7.87q10.29,0,15.8-4,7.35-4,14.52-33.68t8.64-52.35l1.47-12.45q-20.22,15-43.19,38.8t-23.71,31.49A24,24,0,0,0,445.52,475.36Z"/><path class="cls-1" d="M572.71,525.52q-18.75,0-18.75-24.16,0-19.77,21.69-54.73t34.92-35.33q3.67,0,8.27,2.93t4.6,5.85c-1.23,1.71-2.7,3.61-4.41,5.68s-3.56,4.34-5.52,6.77-4.65,5.92-8.08,10.44-6.75,8.85-9.93,13q-27.57,35.52-27.57,48.88t9.19,13.36q7.73,0,21-8.42Q629,490.75,647,468q6.62-8.42,9-8.42c1.59,0,2.39,1,2.39,2.93s-2.82,5.86-8.45,11.72-10.11,10.49-13.42,13.91-5.58,5.67-6.8,6.77-3.49,3.18-6.8,6.23a87.68,87.68,0,0,1-7.54,6.4q-2.58,1.85-7.35,5.49a44.3,44.3,0,0,1-8.45,5.31q-3.69,1.65-8.46,3.85A46.76,46.76,0,0,1,572.71,525.52Zm77-149.92q5,3.5,5,8.24t-4.6,8.24A16.38,16.38,0,0,1,640,395.56a15,15,0,0,1-10.11-4q-4.59-4-4.59-9.15,0-10.25,14-10.25A18,18,0,0,1,649.72,375.6Z"/><path class="cls-1" d="M765.33,409.83l5.15-1.09a9.88,9.88,0,0,1,7.54,2.92c1.83,2,2.75,3.48,2.75,4.58a20.07,20.07,0,0,1-.37,3.66q-.36,2-10.66,18.49-12.87,22.33-21.32,37.71-29.77,55.27-45.58,75.78Q669,596.54,638.51,596.54q-10.65,0-18.56-9a31.08,31.08,0,0,1-8.27-20q1.1-4.39,3.31-4.39c.73,0,1.34.85,1.83,2.56q1.84,9.53,7,14.64t10.29,5.13q21,0,44.85-27.46,15.79-18.3,34.92-53.45l18.38-36.24-27.57,27.82q-26.48,25.26-36.21,25.26t-18.56-6.59Q640,507.58,640,495.5q0-26.72,37.68-63.7t68.56-37q12.49,0,16.17,8.06c.74,2,1.35,3.6,1.84,4.94S765.09,409.83,765.33,409.83ZM655.42,499.89q0,13.19,9.19,13.18,21.32,0,58.08-46.49l39-53.45q-2.2-5.13-9.19-5.13-22.8,0-59.92,35T655.42,499.89Z"/><path class="cls-1" d="M837.75,405.81q9.91,0,9.92,7.69a9.67,9.67,0,0,1-1.1,4.39q-33.09,45.76-39.7,69.19,85.65-85.29,104-85.3a17.43,17.43,0,0,1,3.31-.37q10.29,0,10.29,9.16a10,10,0,0,1-.73,3.66Q923,416.06,909.06,434a336.29,336.29,0,0,0-27.38,36.61q-11.22,17.56-11.22,29.28t5.15,11.72q16.17,0,56.24-44.3a30.86,30.86,0,0,0,2.58-3.29q5.51-6.6,6.61-6.59t1.11,3.66q0,3.66-5.15,9.52-45.59,51.61-64.7,51.62-18,0-18-19.77t14.7-45.4L892.52,419A286.63,286.63,0,0,0,848,459.07q-19.49,21.8-35.47,42.29T794,521.86a9.89,9.89,0,0,1-8.64-4.58,19.65,19.65,0,0,1-3.12-11.35q0-6.76,4.78-18.12t12.13-27.45l-22.06,23.06Q769,491.48,767,491.47c-1.34,0-2-.79-2-2.38s1-3.35,2.94-5.3a308.52,308.52,0,0,0,23.53-26q9.55-12.44,39.33-47.59Q834.08,405.8,837.75,405.81Z"/><path class="cls-1" d="M994.35,516q-10.68,6.22-26.29,6.23T944.17,512q-8.26-10.25-14.15-32.59-6.62,6.6-9.19,6.59c-1.23,0-1.84-.85-1.84-2.56a6,6,0,0,1,1.84-4.39Q933,464,962,435.83l46.31-43.2Q1028.17,374,1031.84,374q11.76,0,11.76,8.78a13.42,13.42,0,0,1-3.49,8.61c-2.33,2.81-4,5-5.14,6.59s-2.27,3.11-3.5,4.57q-6.62,11.36-13.41,46.86t-10.48,49.43q30.51-.36,62.86-39.54c2.45-2.44,4.28-3.66,5.51-3.66s1.84.79,1.84,2.38-1.1,3.72-3.31,6.4q-21.32,24.9-39.7,34.78-11,5.49-28.67,9.15Zm-49.63-40.64q0,12.47,8.27,20.32t18.57,7.87c6.85,0,12.13-1.33,15.8-4q7.35-4,14.52-33.68t8.64-52.35l1.47-12.45q-20.22,15-43.19,38.8t-23.71,31.49A24,24,0,0,0,944.72,475.36Z"/></svg>