<svg xmlns="http://www.w3.org/2000/svg" viewBox="0 0 1077.79 596.54"><defs><style>.cls-1{fill:#df8484;}.cls-2{fill:#fff;}</style></defs><g id="Letras_Trazo" data-name="Letras Trazo"><path d="M406,250.62l2.6,5.6,2.7-5.6,48.32-90.47h6.6l-54.72,101V323H406V261.14l-54.72-101h6.6Z"/><path d="M595,323h-5.4L496.12,171.33l-.6.23V323H490V160.15h5.5L589,311.46l.6-.22V160.15H595Z"/><path d="M700.09,300.61a44.73,44.73,0,0,1-16.71,17.84q-11.1,6.89-26.91,6.88-15.11,0-23.7-9.23t-8.61-24.88q0-15.21,12.86-25.5t32.16-10.29h30.91V237.76q0-15.09-8.66-23.54t-24.35-8.44q-14.72,0-23.66,7.94t-8.95,20.46L630,234l-.2-.56a29.65,29.65,0,0,1,9.81-23.87q10.39-9.79,27.51-9.79,17.4,0,27.91,9.84T705.49,238V298.6a116.68,116.68,0,0,0,.65,12.41,85.82,85.82,0,0,0,2.15,12h-6Q701,315,700.54,311.07a76.19,76.19,0,0,1-.45-8.55ZM656.47,319.4q16.11,0,27.26-7.94t16.36-22.7V261.58H669.48q-16.82,0-28.36,8.67t-11.56,21.42q0,12.18,7.36,20T656.47,319.4Z"/><path d="M808.23,300.61a44.73,44.73,0,0,1-16.71,17.84q-11.1,6.89-26.91,6.88-15.11,0-23.71-9.23t-8.6-24.88q0-15.21,12.85-25.5t32.16-10.29h30.92V237.76q0-15.09-8.66-23.54t-24.36-8.44q-14.7,0-23.65,7.94t-9,20.46l-4.5-.22-.2-.56a29.67,29.67,0,0,1,9.8-23.87q10.41-9.79,27.51-9.79,17.41,0,27.91,9.84T813.63,238V298.6a114.1,114.1,0,0,0,.65,12.41,85.82,85.82,0,0,0,2.15,12h-6q-1.3-7.94-1.75-11.91a76.19,76.19,0,0,1-.45-8.55ZM764.61,319.4q16.11,0,27.26-7.94t16.36-22.7V261.58H777.61q-16.8,0-28.35,8.67T737.7,291.67q0,12.18,7.35,20T764.61,319.4Z"/><path d="M896.15,206.34l-7-.67q-14.5,0-23.56,10.45t-11.75,27.57V323h-5.4V202h4.4l1,21v4.14q4.5-13,13.4-20.19t21.91-7.21a21.64,21.64,0,0,1,4.25.39,31.56,31.56,0,0,1,3.36.84Z"/><path d="M984.89,300.61a44.73,44.73,0,0,1-16.71,17.84q-11.1,6.89-26.91,6.88-15.1,0-23.71-9.23T909,291.22q0-15.21,12.85-25.5T954,255.43h30.91V237.76q0-15.09-8.66-23.54t-24.36-8.44q-14.7,0-23.65,7.94t-9,20.46l-4.5-.22-.2-.56a29.67,29.67,0,0,1,9.8-23.87q10.41-9.79,27.51-9.79,17.42,0,27.91,9.84T990.29,238V298.6a114.1,114.1,0,0,0,.65,12.41,85.82,85.82,0,0,0,2.15,12h-6q-1.3-7.94-1.75-11.91a76.19,76.19,0,0,1-.45-8.55ZM941.27,319.4q16.11,0,27.26-7.94t16.36-22.7V261.58H954.27q-16.8,0-28.35,8.67t-11.56,21.42q0,12.18,7.35,20T941.27,319.4Z"/><path class="cls-1" d="M343.34,430.4q-21.91,16.88-32.14,16.87-5.47,0-8.09-5.33a25.91,25.91,0,0,1-2.62-11.54q0-11.91,10.09-35.72t19.31-23.82q4.73,0,8.1,18.61t6.85,27q16.94-17.86,49.07-59.54,40.36-52.85,53.56-57.81a25.27,25.27,0,0,1,9.22-1.74,14.4,14.4,0,0,1,7.85,2c2.07,1.32,3.11,3,3.11,5q0,4.22-7.22,5-8.73,4.73-26.91,22.83-18.18,17.61-29.15,33-26.65,37-54.8,60.29Q363.52,446,393.41,446q3.24,0,9.72-.49,69.26-6.45,98.15-59.79Q513,364.41,513,343.57t-15.2-37.46q-12.19-13.65-26.53-16.87A132.81,132.81,0,0,0,442,286q-38.37,0-70.75,17.62-34.12,18.6-34.13,41.68a15.16,15.16,0,0,0,3.37,10.17c2.24,2.65,3.77,4.13,4.6,4.46h-1.49a21,21,0,0,1-11.46-6.45q-5.47-6.45-5.48-13.64,0-24.81,31.26-42.67t73.37-17.87a186.24,186.24,0,0,1,39.86,4.47q20.42,4.47,37.12,21.33Q527.43,325,527.44,350q0,18.6-11,38.46-18.94,34.23-56.55,50.11-30.15,12.66-65,12.65T343.34,430.4Zm-33.88-1a28.54,28.54,0,0,0,3,13.4q10.71-4.71,25.91-19.6-7.23-11.91-9.09-18.73a94.08,94.08,0,0,1-2.62-18Q309.46,411.06,309.46,429.41Zm35.62-69.47a.71.71,0,0,0,.5-.24c0,.33,0,.49-.12.49S345.25,360.11,345.08,359.94Z"/><path class="cls-1" d="M538.9,439.83a16,16,0,0,1-5-.74Q518,434.62,518,421.22q0-17.36,21.92-40.19t39.36-22.82a13.86,13.86,0,0,1,9.35,3.1,9.64,9.64,0,0,1,3.61,7.57q0,13.89-21.05,26.54T536.9,408.08a11,11,0,0,1-3.48-.5,28.5,28.5,0,0,0-3.74,14.14q0,12.9,12.33,12.9T574,418a158.92,158.92,0,0,0,25.91-25.8c1.5-2,2.78-3,3.86-3s1.62.5,1.62,1.49-.66,2.4-2,4.22A153.12,153.12,0,0,1,571,426.19Q552.1,439.82,538.9,439.83ZM586,368.38q0-3-6.35-3t-18.06,9.68q-15.71,12.9-24.42,27a10.28,10.28,0,0,0,3.24.5q9.47,0,25.29-10.05t19.8-22A6.09,6.09,0,0,0,586,368.38Z"/><path class="cls-1" d="M636.05,432.88q-7.23,4.23-17.81,4.22T602,430.16q-5.6-6.95-9.59-22.08-4.49,4.46-6.22,4.46c-.83,0-1.25-.58-1.25-1.74a4.06,4.06,0,0,1,1.25-3q8.22-10.17,27.9-29.28l31.39-29.27q13.44-12.66,15.94-12.66,8,0,8,6a9.09,9.09,0,0,1-2.37,5.83q-2.37,2.85-3.48,4.46c-.75,1.08-1.54,2.11-2.37,3.1q-4.49,7.69-9.09,31.76T645,421.22q20.67-.24,42.6-26.79c1.65-1.65,2.9-2.48,3.73-2.48s1.25.54,1.25,1.61-.75,2.52-2.24,4.34q-14.46,16.88-26.91,23.57a81.16,81.16,0,0,1-19.43,6.2Zm-33.63-27.53a18.19,18.19,0,0,0,5.6,13.77,17.84,17.84,0,0,0,12.58,5.33q7,0,10.72-2.73,5-2.73,9.84-22.82A213.3,213.3,0,0,0,647,363.42l1-8.44a242.34,242.34,0,0,0-29.27,26.3q-15.59,16.13-16.07,21.34A16.19,16.19,0,0,0,602.42,405.35Z"/><path class="cls-1" d="M688.61,439.34q-12.71,0-12.7-16.38,0-13.4,14.69-37.09t23.67-23.94a10.77,10.77,0,0,1,5.61,2q3.11,2,3.11,4c-.83,1.16-1.83,2.45-3,3.85s-2.41,2.94-3.74,4.59-3.15,4-5.48,7.07-4.57,6-6.72,8.81q-18.69,24.06-18.69,33.12t6.23,9.05q5.24,0,14.2-5.7,20.93-12.9,33.13-28.29c3-3.8,5-5.7,6.11-5.7s1.62.66,1.62,2-1.92,4-5.73,7.94-6.85,7.11-9.1,9.43-3.78,3.84-4.61,4.59-2.36,2.15-4.6,4.22a60.51,60.51,0,0,1-5.11,4.34c-1.16.83-2.83,2.07-5,3.72a30,30,0,0,1-5.73,3.6c-1.66.74-3.58,1.61-5.73,2.6A31.59,31.59,0,0,1,688.61,439.34Zm52.19-101.6q3.36,2.36,3.36,5.58a6.85,6.85,0,0,1-3.11,5.58,11.06,11.06,0,0,1-6.85,2.36,10.16,10.16,0,0,1-6.85-2.73,8.08,8.08,0,0,1-3.12-6.2q0-6.94,9.47-6.95A12.18,12.18,0,0,1,740.8,337.74Z"/><path class="cls-1" d="M819.15,360.94l3.49-.75a6.68,6.68,0,0,1,5.1,2c1.25,1.32,1.87,2.35,1.87,3.1a13.6,13.6,0,0,1-.25,2.48q-.24,1.37-7.22,12.53-8.73,15.13-14.45,25.55-20.18,37.47-30.89,51.36-22.92,30.27-43.6,30.27-7.22,0-12.58-6.08a21.07,21.07,0,0,1-5.6-13.52c.5-2,1.24-3,2.24-3,.5,0,.91.58,1.25,1.74q1.25,6.45,4.73,9.92t7,3.47q14.2,0,30.4-18.6,10.71-12.42,23.66-36.23l12.46-24.56L778,419.49q-17.92,17.11-24.53,17.12a20.66,20.66,0,0,1-12.58-4.47A15.55,15.55,0,0,1,734.2,419q0-18.11,25.53-43.17t46.46-25.06c5.65,0,9.3,1.83,11,5.46l1.24,3.35C818.73,360.48,819,360.94,819.15,360.94Zm-74.49,61q0,8.92,6.23,8.93,14.45,0,39.36-31.51l26.41-36.22q-1.5-3.46-6.23-3.47-15.45,0-40.61,23.69T744.66,422Z"/><path class="cls-1" d="M868.22,358.21c4.49,0,6.73,1.73,6.73,5.21a6.54,6.54,0,0,1-.75,3q-22.41,31-26.9,46.9,58-57.81,70.5-57.81a12,12,0,0,1,2.24-.25q7,0,7,6.2a6.61,6.61,0,0,1-.5,2.48q-.51,1.24-10,13.4A228.65,228.65,0,0,0,898,402.12Q890.4,414,890.39,422c0,5.29,1.17,7.94,3.49,7.94q11,0,38.12-30a22.67,22.67,0,0,0,1.74-2.23q3.74-4.47,4.49-4.47c.49,0,.74.83.74,2.48s-1.16,3.81-3.48,6.45q-30.9,35-43.85,35-12.21,0-12.21-13.39t10-30.77l15.94-25.8a194.21,194.21,0,0,0-30.14,27.17Q862,409.07,851.16,423t-12.58,13.89a6.71,6.71,0,0,1-5.86-3.1,13.32,13.32,0,0,1-2.11-7.69c0-3.06,1.07-7.15,3.24-12.28s4.89-11.33,8.22-18.61l-15,15.63q-5.48,5.46-6.85,5.46c-.91,0-1.37-.53-1.37-1.61s.66-2.27,2-3.6a206.54,206.54,0,0,0,15.94-17.61q6.48-8.43,26.66-32.26Q865.73,358.21,868.22,358.21Z"/><path class="cls-1" d="M974.35,432.88q-7.23,4.23-17.81,4.22t-16.2-6.94q-5.6-6.95-9.59-22.08c-3,3-5.06,4.46-6.23,4.46-.83,0-1.24-.58-1.24-1.74a4,4,0,0,1,1.24-3q8.24-10.17,27.91-29.28l31.38-29.27q13.46-12.66,16-12.66,8,0,8,6a9.09,9.09,0,0,1-2.37,5.83q-2.37,2.85-3.48,4.46c-.75,1.08-1.54,2.11-2.37,3.1q-4.49,7.69-9.09,31.76t-7.1,33.49q20.67-.24,42.6-26.79c1.65-1.65,2.9-2.48,3.73-2.48s1.25.54,1.25,1.61-.75,2.52-2.24,4.34q-14.46,16.88-26.91,23.57a81.16,81.16,0,0,1-19.43,6.2Zm-33.63-27.53a18.19,18.19,0,0,0,5.6,13.77,17.84,17.84,0,0,0,12.58,5.33q7,0,10.71-2.73,5-2.73,9.84-22.82a212.38,212.38,0,0,0,5.86-35.48l1-8.44A243.12,243.12,0,0,0,957,381.28Q941.46,397.41,941,402.62A16.19,16.19,0,0,0,940.72,405.35Z"/></g><g id="Maniquí"><g id="Color_Blusa" data-name="Color Blusa"><path class="cls-2" d="M305.51,189.25c-.39-.49-.8-1-1.22-1.43-.21-.23-.42-.47-.65-.68l0,0-.07,0a4.83,4.83,0,0,1-1.64-1.63l-.27.05a4.67,4.67,0,0,0-1.29-.62,4.51,4.51,0,0,0-3.64-3.33l-.18-.05a5.92,5.92,0,0,0-1.8-1.83,4.08,4.08,0,0,0-2.49-2.72c-.67-.3-1.34-.62-2-.93a4.38,4.38,0,0,0-.66-.71A22.06,22.06,0,0,0,279.05,170a53,53,0,0,0-7.75-3.89c-6.36-2.37-12.95-2.73-19.66-3.17a184.39,184.39,0,0,0-20.09-.64,4.19,4.19,0,0,0-.89-.38,5.66,5.66,0,0,1-.94.09,5.83,5.83,0,0,1-.74-.06,4.91,4.91,0,0,1-.68.06,4.86,4.86,0,0,1-.56-.05,4.41,4.41,0,0,1-.65.11,4.52,4.52,0,0,0-2.46,2.49,14.8,14.8,0,0,0-2.3,2.6,3.81,3.81,0,0,0-.46.22,5.49,5.49,0,0,0-1.89,1.88,1.24,1.24,0,0,0-.1.2,7.17,7.17,0,0,0-1.49,1l-.31.25a5.34,5.34,0,0,0-2.45,1.24,5.38,5.38,0,0,0-1.17.13c-2.33.5-4.33,1.86-6.6,2.33a21.26,21.26,0,0,0-6.15,2.87,4.83,4.83,0,0,0-2.18.31c-8.2,3-19.49,4.16-28,1.69-3.88-1.12-7.42-3.31-11.31-4.54a31.86,31.86,0,0,1-11.45-6.44,4.53,4.53,0,0,1-1.47-.75,4.38,4.38,0,0,1-1.93-1.58,5,5,0,0,0-4.25,1,5.27,5.27,0,0,0-1.23-.5c-5.46-1.49-10.78-.89-16.35-.48-1.29.1-2.59.18-3.89.25a5.26,5.26,0,0,0-1.43-.29c-7.36-.47-16.56-2.29-23.62.38a48.13,48.13,0,0,0-10.1,5.29c-2.83,2-5.28,4.47-8.21,6.25a4.42,4.42,0,0,0-3.23,2.4,4.16,4.16,0,0,0-.59,2.65,5.71,5.71,0,0,0,.26,1.54,5,5,0,0,0,.24,3.86c2.84,6.08,6.11,12.12,8.11,18.53a4.86,4.86,0,0,0,2,2.71c.58,1.44,1.07,2.91,1.51,4.4a5.8,5.8,0,0,0,.52,1.21c.78,3.22,1.3,6.23,2.92,9.32a4.86,4.86,0,0,0,1.13,1.46.61.61,0,0,0,0,.13c1.19,4.09,4.27,7,5.71,11,1.58,4.37,4.18,8.08,6.74,11.91.74,7.13,3.71,13.25,5.57,20.26.77,2.93,1.45,5.89,2.07,8.86a44.33,44.33,0,0,0-.26,6c.15,3.69.77,7.19-.33,10.79a4.43,4.43,0,0,0,.4,3.81,31.29,31.29,0,0,0-1,5.25,5.16,5.16,0,0,0,.11,2.27,5.45,5.45,0,0,0-.64.63,6.08,6.08,0,0,1,.08,1.28,3.85,3.85,0,0,1,0,1.62.5.5,0,0,0,0,.12,5,5,0,0,1-.16,1.1,5.58,5.58,0,0,1-.34,1.94,4.84,4.84,0,0,0,1.6,1.22c7.36,3.55,15,7.57,23.45,7.61a4.85,4.85,0,0,0,1.93-.35,15.39,15.39,0,0,0,2.16.31,4,4,0,0,0,1.67-.25c.45,0,.9,0,1.37-.06a5.23,5.23,0,0,0,5.78-.46,5.47,5.47,0,0,1,.19-1.66,5.14,5.14,0,0,1,.93-2.2c3,0,6.28-.32,9.15.33,2.28.53,4.46,1.52,6.82,2,6,1.21,10.38,4,15.14,7.54a4,4,0,0,1-.19.7,4.6,4.6,0,0,1-.25.74,4.69,4.69,0,0,1-.32,1.59,5.33,5.33,0,0,0,2.8.33h0a14.07,14.07,0,0,0,6.79,1.25,5.4,5.4,0,0,0,.88.21c2.51.39,6.93.6,9.07,2.14,1.52,1.09,2,2.26,3.41,3a5.19,5.19,0,0,1,1.83-.32,4.82,4.82,0,0,1,2.74.79,4.82,4.82,0,0,1,2.15.67,4.12,4.12,0,0,1,.8.35,4.4,4.4,0,0,1,1.31.84,54.68,54.68,0,0,0,10.09,2.25c3.43.32,5-2.4,4.76-5.09a4,4,0,0,0,1.75-4c-.23-2.13,1.54-3.94,2.34-5.88,1.31-3.21,2.08-6.42,3.66-9.55a56.8,56.8,0,0,0,5.49-16.54,5.07,5.07,0,0,0-1.13-4.24,4.32,4.32,0,0,0,.26-.66c1.45-4.53,2.85-9.08,4.42-13.57,1.5-4.3,2.9-9.29,5.8-12.9a5.35,5.35,0,0,0,1.13-2.47,3.18,3.18,0,0,0,.38-.11,34.69,34.69,0,0,0,8.25-4.09,17.4,17.4,0,0,0,3.39-2.9,17,17,0,0,0,1.57-2.39,4.87,4.87,0,0,0,1.43-1.16A67.09,67.09,0,0,0,272,240.45a6,6,0,0,0,.35-1,5,5,0,0,0,1-1.29c3.78-7,7.43-14.18,11.62-21a4.76,4.76,0,0,0,.35-.67,1.17,1.17,0,0,0,.41,0,1.5,1.5,0,0,0,.89-.69l.15-.36a1.2,1.2,0,0,0,0-.5,4.16,4.16,0,0,1,0-.61h0a1,1,0,0,0,.13-.16,3.92,3.92,0,0,0,1.23-2.2s0,0,0,0l.14-.17c.45-.57,1-1.08,1.49-1.62,1-1.08,2-2.16,3-3.25a23.38,23.38,0,0,0,4.64-6.71,5.2,5.2,0,0,0,.78-.64c1.34-1.35,2.9-2.71,4.15-4.23a5.12,5.12,0,0,0,.69,0h.11a4.38,4.38,0,0,1,1.35-1.49,10.71,10.71,0,0,1,3.25-2.41.09.09,0,0,0,0-.05A11.8,11.8,0,0,1,305.51,189.25Z"/><path class="cls-2" d="M238.77,431h0a5.18,5.18,0,0,0-.35-6.22c-3.89-4.73-6.53-10.62-9.5-15.95-2.79-5-6-10-8.21-15.34-1.94-4.76-3.21-9.58-6.42-13.71s-7.63-7.23-12-10.19a4.66,4.66,0,0,0-2.58-.87,4.88,4.88,0,0,0-3.21-1.34c-.75-.05-2.58-2-3.72-2.29-2.47-.64-4.32.64-6.77.61-4.76-.05-10.15-3.29-14.12-5.59a4.65,4.65,0,0,0-3.72-.53,3.9,3.9,0,0,1-.17.81,12.61,12.61,0,0,1-1.15,2.54c-.16.26-.31.52-.46.78l0,.09a4.46,4.46,0,0,1-1.65,2.52,1.51,1.51,0,0,0,.09.18l-.18,0c-1.58.23-3.13.53-4.67.84a5.28,5.28,0,0,0-5-.07c-1.55-.43-3-.93-3.89-1.21-3.6-1.07-6.86-2.71-10.62-2.87-.79-.75-1.56-1.52-2.35-2.27a5.18,5.18,0,0,0-2.32-1.26,6.32,6.32,0,0,1,.06-.74c0-.21,0-.42,0-.64a4.8,4.8,0,0,1,.45-2,4.6,4.6,0,0,0-3.66-1.61,5.68,5.68,0,0,0-.59,0,4.94,4.94,0,0,0-2-1A121.12,121.12,0,0,0,102.3,350a4.48,4.48,0,0,0-3.82,1.74l-.56.26c-4.75,2.52-9.8,4.79-14.17,7.94-1.84,1.32-3.58,2.78-5.31,4.25A9.08,9.08,0,0,0,74,366.4c-1.36,1.23-2.34,2.85-3.61,4.16a4.56,4.56,0,0,0-.51.65,71.71,71.71,0,0,0-9.93,9.23c-3.64,4.14-6.48,9.34-10.75,12.89-4.71,1-4.84,8.27-.36,9.64a4,4,0,0,0,.54.28c-.23,2.66,1.37,5.5,4.81,5.5a5.85,5.85,0,0,0,1-.1,4.63,4.63,0,0,0,3.8-.5,10.55,10.55,0,0,1,7.18-1.31,4.58,4.58,0,0,0,1,1.24,28.88,28.88,0,0,0-3,2.19,3.88,3.88,0,0,0-1.07,1.54,4.65,4.65,0,0,0-4.11,4.42l.25.13a23.94,23.94,0,0,0,4.31,1.88A35.46,35.46,0,0,0,68.38,420a4.37,4.37,0,0,1,2.79,2,18.64,18.64,0,0,0,3.46,1.38c4.21,1.16,8.8.71,13.07.2a5.13,5.13,0,0,0,2.13-.78,4.81,4.81,0,0,0,3.6.56h0a4.25,4.25,0,0,0,.49.21h0a4.13,4.13,0,0,0,.5.15l.07,0,.48.08.11,0q.3,0,.63,0c.24,0,.47,0,.7,0a49.84,49.84,0,0,0,10,5.41c6,2.57,11.83,2.23,18.07,1.31,2.14,2.8,5.48,4.31,9.53,5.23a31,31,0,0,0,9.5.68c3-.25,6.53-2,9.48-1.57a5.15,5.15,0,0,0,3.32-.62,3.12,3.12,0,0,0,.39.15,4.35,4.35,0,0,0,1.57.6c3.15,2,6.8,2.82,10.37,4a4.66,4.66,0,0,0,2.95,0,45.72,45.72,0,0,0,5.63,1.6,47.49,47.49,0,0,0,16.85.3,4.84,4.84,0,0,0,.94.12l1.89,0a5.17,5.17,0,0,0,4.44-2.69,5.26,5.26,0,0,0,3.57-1.45,29.63,29.63,0,0,0,9.25,4.8,22.34,22.34,0,0,0,7.58,1.47c3,0,5.29-1.79,8-2.05a5,5,0,0,0,3.63-2,5.26,5.26,0,0,0,5.37-1.14A5.1,5.1,0,0,0,238.77,431Z"/></g><g id="Color_Cinturón" data-name="Color Cinturón"><path class="cls-2" d="M218.78,342.64a4.34,4.34,0,0,0-2-.34c-.31,0-.61,0-.92-.07a1.41,1.41,0,0,0-.83-.61c-1.34-.4-2.67-.85-4-1.32a1.25,1.25,0,0,0-.42-1.09,8.77,8.77,0,0,0-3.71-1.75,21.87,21.87,0,0,0-3.95-.4,1.29,1.29,0,0,0-.71.19c-.64-.18-1.27-.35-1.92-.5a1.42,1.42,0,0,0-1.51.54,6.35,6.35,0,0,0-1.27-.58,1.59,1.59,0,0,0-1-1.63,51.48,51.48,0,0,0-7.91-3,70.13,70.13,0,0,0-8.3-1.26c-1.21-.14-2.43-.24-3.65-.33.1-.54.21-1.07.32-1.61a2.26,2.26,0,0,0,0-.58,1.6,1.6,0,0,0-.52-1.88,40.64,40.64,0,0,0-15.41-7.58,59.43,59.43,0,0,0-8.6-1.36c-1.64-.14-3.3-.26-4.94-.25s-2.18,1-2.6,2.33a1.43,1.43,0,0,0,0,.94,13.83,13.83,0,0,0-1.7,1.55,87.74,87.74,0,0,1-21.39-2.81,74.25,74.25,0,0,1-11-3.8c-1.33-.59-3-1.71-4.26-.28a3.52,3.52,0,0,0-.67,2.06l-.12,1a5.53,5.53,0,0,0-.79,4.85c-.21,1-.45,2.06-.72,3.07a18,18,0,0,0-2.16,3.37,13.54,13.54,0,0,0-1.12,3.82,39.27,39.27,0,0,0-5,9.32c-.55,1.52-1.08,4.09.19,5.43s4.21,1.19,5.86,1.23a30.65,30.65,0,0,1,6.34.57c2.09.47,4.16.86,6.28,1.14,4.36.57,8.75.81,13,2a1.74,1.74,0,0,0,.67,0,13.11,13.11,0,0,0,2.07.82c1.52.48,3,.92,4.56,1.39a1.2,1.2,0,0,0,.5,0,4.21,4.21,0,0,1-.09.62,5.65,5.65,0,0,1-.12,1.88,7.11,7.11,0,0,0,3,2.44c1.49.86,3,1.71,4.53,2.49A30.46,30.46,0,0,0,162.28,366a1.6,1.6,0,0,0,.26-.08,1.49,1.49,0,0,0,1.25.67,1.54,1.54,0,0,0,1.5-1.5s0-.1,0-.13a1.05,1.05,0,0,1,.06-.24,1.31,1.31,0,0,1,.09-.28l0-.1a12.4,12.4,0,0,1,.62-1.13,19.5,19.5,0,0,0,1.22-2.52c.16-.38.3-.77.45-1.15a.5.5,0,0,0,.05-.13c.9.11,1.8.18,2.7.23a46.61,46.61,0,0,0,11.95,4.59c2.22.51,4.65,1.11,6.91.52a8.81,8.81,0,0,0,1.6-.61,1.33,1.33,0,0,0,.92.76,30.92,30.92,0,0,1,8,3.24,25.63,25.63,0,0,0,8.44,2.94,1.42,1.42,0,0,0,1.39-1,1.52,1.52,0,0,0,.62-.41,31.62,31.62,0,0,0,9.05-18,43.32,43.32,0,0,0,.54-5.08C220,345.24,220.21,343.44,218.78,342.64Z"/></g><g id="Manchas"><path d="M210.49,412c-6.44,0-6.45,10,0,10S216.93,412,210.49,412Z"/><path d="M230.7,441.63a26.16,26.16,0,0,1,7.45-3.5,4.54,4.54,0,0,0-4.55-3.25c-4.47,0-5.84,4.83-4.09,7.78A4.68,4.68,0,0,1,230.7,441.63Z"/><path d="M186.41,442.07a5,5,0,0,1,1.91-.37,5.42,5.42,0,0,1,1.49.21,5.4,5.4,0,0,1,2.27.09c2.22-2.86,1-8.26-3.76-8.26-5.07,0-6.13,6.19-3.21,8.82A4.49,4.49,0,0,1,186.41,442.07Z"/><path d="M165.39,411.58c-6.43,0-6.44,10,0,10S171.84,411.58,165.39,411.58Z"/><path d="M188.51,389c-6.44,0-6.45,10,0,10S195,389,188.51,389Z"/><path d="M165.2,366.86c-6.43,0-6.44,10,0,10S171.65,366.86,165.2,366.86Z"/><path d="M143.22,389.41c-6.43,0-6.44,10,0,10S149.67,389.41,143.22,389.41Z"/><path d="M119.73,411.58c-6.44,0-6.45,10,0,10S126.17,411.58,119.73,411.58Z"/><path d="M210.33,374.56h0a3.27,3.27,0,0,1-.51-.47l0,0a4.53,4.53,0,0,1-.43-.55h0a4.77,4.77,0,0,1-.61-1.29c-.37-.18-.75-.34-1.11-.54a11,11,0,0,1-1.54-1c-.4,2.74,1.19,5.82,4.76,5.82a5.23,5.23,0,0,0,.81-.06A4.58,4.58,0,0,1,210.33,374.56Z"/><path d="M119.92,366.1c-6.44,0-6.45,10,0,10S126.36,366.1,119.92,366.1Z"/><path d="M97.18,389.22c-6.43,0-6.45,10,0,10S103.63,389.22,97.18,389.22Z"/><path d="M75.39,411.39c-6.43,0-6.44,10,0,10S81.84,411.39,75.39,411.39Z"/><path d="M52.84,389c-6.43,0-6.44,10,0,10S59.29,389,52.84,389Z"/><path d="M74.63,366.86c-6.43,0-6.44,10,0,10S81.08,366.86,74.63,366.86Z"/><path d="M142.09,299c-6.44,0-6.45,10,0,10S148.53,299,142.09,299Z"/><path d="M210.67,321.39c-6.43,0-6.44,10,0,10S217.12,321.39,210.67,321.39Z"/><path d="M235.48,299.72a5,5,0,0,0-2.26-.5c-6.43,0-6.44,10,0,10a5.29,5.29,0,0,0,1.65-.25A28,28,0,0,1,235.48,299.72Z"/><path d="M187,299c-6.43,0-6.44,10,0,10S193.44,299,187,299Z"/><path d="M211.05,275.91c-6.43,0-6.44,10,0,10S217.5,275.91,211.05,275.91Z"/><path d="M232.09,254.69c-6.44,0-6.45,10,0,10S238.53,254.69,232.09,254.69Z"/><path d="M187,254.12c-6.43,0-6.44,10,0,10S193.44,254.12,187,254.12Z"/><path d="M165.2,276.67c-6.43,0-6.44,10,0,10S171.65,276.67,165.2,276.67Z"/><path d="M141.52,254.12c-6.44,0-6.45,10,0,10S148,254.12,141.52,254.12Z"/><path d="M119.54,277.05c-6.44,0-6.45,10,0,10S126,277.05,119.54,277.05Z"/><path d="M120.11,231.58c-6.44,0-6.45,10,0,10S126.55,231.58,120.11,231.58Z"/><path d="M165,231.76c-6.43,0-6.44,10,0,10S171.46,231.76,165,231.76Z"/><path d="M210.86,231.58c-6.43,0-6.44,10,0,10S217.31,231.58,210.86,231.58Z"/><path d="M255.39,232c-6.43,0-6.44,10,0,10S261.84,232,255.39,232Z"/><path d="M232.09,209.22c-6.44,0-6.45,10,0,10S238.53,209.22,232.09,209.22Z"/><path d="M187.37,209.22c-6.43,0-6.45,10,0,10S193.81,209.22,187.37,209.22Z"/><path d="M164.44,186.86c-6.43,0-6.44,10,0,10S170.89,186.86,164.44,186.86Z"/><path d="M119.54,186.29c-6.44,0-6.45,10,0,10S126,186.29,119.54,186.29Z"/><path d="M96.23,209.22c-6.43,0-6.44,10,0,10S102.68,209.22,96.23,209.22Z"/><path d="M74.82,186.48a4.86,4.86,0,0,0-2.62.71,5.48,5.48,0,0,1,.14,2c0,.05,0,0,.07,0s0,0,0,0l-.06.19.18.65s.27.72.29.84c.14.31.29.62.44.92.42.81.91,1.57,1.4,2.34.79,1.26-.42-.79.27.34a2.32,2.32,0,0,0,.48.46h0l-.53-.38a6.12,6.12,0,0,1,1.62,1.67C81.2,194.65,80.65,186.48,74.82,186.48Z"/><path d="M99.31,164.85a5.52,5.52,0,0,1-1.85.53,8.19,8.19,0,0,1-4.07,1.16,3.85,3.85,0,0,1-.48,0c-1.76,2.94-.41,7.79,4.08,7.79C102.52,174.31,103.3,166.92,99.31,164.85Z"/><path d="M145.5,165a5.33,5.33,0,0,1-.82-.07,4.05,4.05,0,0,1-.7.07h-5.12a3.29,3.29,0,0,1-.44-.05c-2.35,2.83-1.14,8.38,3.67,8.38s6-5.51,3.67-8.35Z"/><path d="M209.92,186.29c-6.44,0-6.45,10,0,10S216.36,186.29,209.92,186.29Z"/><path d="M232.46,163.74c-6.43,0-6.44,10,0,10S238.91,163.74,232.46,163.74Z"/><path d="M255.77,186.67c-6.43,0-6.45,10,0,10S262.21,186.67,255.77,186.67Z"/><path d="M277.94,209.41c-6.44,0-6.45,10,0,10S284.38,209.41,277.94,209.41Z"/><path d="M301.17,197.23a4.36,4.36,0,0,1,1.58-1.4,16.26,16.26,0,0,1,2-2.39,4.17,4.17,0,0,1,1.15-.82c.17-2.62-1.43-5.38-4.82-5.38-6.43,0-6.44,10,0,10Z"/><path d="M274.38,166c-2.24,2.86-1,8.27,3.75,8.27a4.69,4.69,0,0,0,4.81-4.59A17.72,17.72,0,0,1,274.38,166Z"/></g><g id="Color_Maniquí" data-name="Color Maniquí"><path d="M224.9,163.05a1.47,1.47,0,0,0-1.44-.83h0l-.08,0-.13-.07a6.13,6.13,0,0,1-.73-.48c-.51-.37-1-.73-1.54-1.07-1.07-.71-2.17-1.37-3.29-2a1.66,1.66,0,0,0-.66-.18,6.31,6.31,0,0,0-1.87-2.09A39.37,39.37,0,0,1,201.46,138a6.4,6.4,0,0,0-.68-1.36c-.91-7.4.46-15-.13-22.49,1.72-2.85,3.35-5.75,4.83-8.78a6.78,6.78,0,0,0,.52-1.44,5.75,5.75,0,0,0,2.16-3.15c.14-.53.32-1,.5-1.55.12-.26.24-.53.38-.79a7,7,0,0,0,.74-2.27,6.1,6.1,0,0,0,.86-1.91c1.07-4,2.37-7.14,2.25-11.41a58.21,58.21,0,0,0-1.33-10.6,8.28,8.28,0,0,0-1.82-4.93,31.19,31.19,0,0,0-4.08-9.74,6.16,6.16,0,0,0-2.35-2,5.35,5.35,0,0,0-1.75-1.79,5.75,5.75,0,0,0,3.11-4.58,6.72,6.72,0,0,0,.55-2,6.91,6.91,0,0,0,.25-3.41,7.13,7.13,0,0,0-.37-2,6.73,6.73,0,0,0-.46-2.51,7.2,7.2,0,0,0,6.4-5.57A11.2,11.2,0,0,0,211,28.5c-.1-.36-.23-.7-.36-1a2.29,2.29,0,0,0,0-.39,7.78,7.78,0,0,0,0-2.26,6.37,6.37,0,0,0,2.07.34c7.73,0,7.74-12,0-12a6.12,6.12,0,0,0-2.43.48c0-.59.09-1.18.14-1.77a6,6,0,0,0-1.75-4.24,6.14,6.14,0,0,0-4.25-1.76,7.54,7.54,0,0,0-1.82.31,7.89,7.89,0,0,0-5-4.47c-3.43-.92-6.65.54-9,2.93a15.76,15.76,0,0,1-2.26-.18,9.2,9.2,0,0,0-7.17,1.77,9,9,0,0,0-1.36,1.25A3.36,3.36,0,0,0,177,8.63a5,5,0,0,0-1.61-.25,4.66,4.66,0,0,0-3.28,1.22l-1,0a1.44,1.44,0,0,0-1.24.67,1.53,1.53,0,0,0,.69,2.72,5.68,5.68,0,0,0,.31,2.32,10.56,10.56,0,0,0-2,1.37c-2.32,2.12-2.93,5.14-2.64,8.17A6.38,6.38,0,0,0,167,27.2a17.82,17.82,0,0,0-1.81,1.36,13.3,13.3,0,0,0-2.74,3.89c-1.76,3.48-2.85,6.8-2.43,10.59a5,5,0,0,0-1.55,1.88,4.55,4.55,0,0,0-2,2.23c-2.46,1.73-5.12,3.18-7.78,4.74-5.12,3-9.95,6.41-14.78,9.83a5.08,5.08,0,0,0-2,2.64,10.77,10.77,0,0,0-4.09,4.31c-1.9,3.66-1.77,8-1.83,12-.07,4.42-.17,8.3,1.69,12.39a5.64,5.64,0,0,0,.29.55,20.78,20.78,0,0,0,2.38,7,4.67,4.67,0,0,0,3.23,4,5.79,5.79,0,0,0-.24,1.17,1.15,1.15,0,0,0-.54.35c-1.34,1.55-2.84,3.83-2.38,6,0,.13.06.27.08.4a12.91,12.91,0,0,1-1.3,1.46c-1,.89-2.25,1.45-2.5,2.86-.3,1.62.94,2.68,2.36,3.09a10,10,0,0,0,4.28.11,1,1,0,0,0,.24-.08l.27,1.54a7,7,0,0,1,.15,2.26,2.27,2.27,0,0,0-.6,2.41,1.57,1.57,0,0,0,1.85,1,4.84,4.84,0,0,0,2.16,1.61c.19.09.37.19.55.29l-.1.2-.25.45c-.47.87-.82,1.9-.1,2.74a3.93,3.93,0,0,0,2.71,1c.8.07,1.61.08,2.41.12a4.82,4.82,0,0,0,1.59.83,10.11,10.11,0,0,0-.46,1.63,10.3,10.3,0,0,0,0,4.21,4.1,4.1,0,0,0,2.55,2.94,6.88,6.88,0,0,0,1.74.34l.79.08.26,0,.32.05a1.72,1.72,0,0,0,1-.08l.74.09a5.7,5.7,0,0,0,1.1-.11,4.6,4.6,0,0,0,1.84-.29,25.13,25.13,0,0,0,2.59-1.15,5.71,5.71,0,0,0,3.42-.86c2.09-1.23,4.17-2.5,6.23-3.78.07,1.09.39,2.16.44,3.26s0,2.46.14,3.69c.19,2.09.41,4.18.61,6.27a1.44,1.44,0,0,0-1.14,1.44,2.86,2.86,0,0,0,.07.28l-11.56,8.67a49.81,49.81,0,0,1-9.06,5.14l.63.88,6.43,4s-1,1,10,5,15,4,18,4,18.18-2.85,19.88-3.92a5.65,5.65,0,0,0,3.54-1.16,6.2,6.2,0,0,0,1.68-.48,8.78,8.78,0,0,0,3-.92,4.56,4.56,0,0,0,2-.51,4.51,4.51,0,0,0,1.14-.57A5.36,5.36,0,0,0,215,171l.48-.1a4.88,4.88,0,0,0,1.7-.61,6.62,6.62,0,0,0,1.32-1.27c.29-.32.46-.31,1-.47a8.26,8.26,0,0,0,1.67-.65,4.91,4.91,0,0,0,1.46-1.41c.37-.47.92-.72,1.15-1.28.62-.11.91-.9,1.27-1.48C225.17,163.43,225.9,163.05,224.9,163.05Z"/><path d="M282.84,366.68a4.94,4.94,0,0,0,.46-3.43c-.24-1.18-.47-2.37-.68-3.55a3.7,3.7,0,0,0,.3-1.92c-.13-1.1-.3-2.2-.5-3.3a4.85,4.85,0,0,0,.2-1.38v-.76a3.74,3.74,0,0,0-.43-1.92,3.41,3.41,0,0,0-.3-.64c0-2.12-.06-4.24-.27-6.33-.13-1.22-.33-2.39-.54-3.54a5.82,5.82,0,0,0-.13-2.72,21.21,21.21,0,0,0-.65-6.49,6.38,6.38,0,0,0-.33-1,4.94,4.94,0,0,1,.12-.65,4.76,4.76,0,0,0-.72-4.05,127.5,127.5,0,0,1,.13-21.67,4.36,4.36,0,0,0-.77-3.07q.19-4,.41-7.92a4.75,4.75,0,0,0-.47-2.43c.17-2.62.29-5.25.3-7.9,0-8.36-.22-16.74-.39-25.1l.25-.17a2.22,2.22,0,0,0,.54-1.94c0-.83,0-1.67,0-2.51l0-4.85-.06-9.88a1.69,1.69,0,0,0-.15-.66c0-.08.07-.16.1-.23s0-.12,0-.18a1.22,1.22,0,0,0,0-.6,1.12,1.12,0,0,0-.18-.56,1.29,1.29,0,0,0-.16-.17,8.93,8.93,0,0,0,.13-3.64.5.5,0,0,0-.61-.35.52.52,0,0,0-.35.62,6.2,6.2,0,0,1,.06.62.5.5,0,0,0-.62.21,7.13,7.13,0,0,0-.36,2.11l-.14.06-.28.21a1.24,1.24,0,0,0-.66.55,1.51,1.51,0,0,0-1.62,1.07,28.47,28.47,0,0,1-2.86,5.87,15.78,15.78,0,0,0-2.46,5.9,5.23,5.23,0,0,0-1.56,1.11,43.06,43.06,0,0,0-6.09,7.85,4,4,0,0,0-1.25.5,5,5,0,0,0-2.29,3,.13.13,0,0,0,0,.06,5.4,5.4,0,0,0-.94.71.47.47,0,0,0-.78-.14,19.35,19.35,0,0,0-1.28,1.59.49.49,0,0,0-.51.11l-.17.15a.53.53,0,0,0-.1.06c-.05.05-.08.11-.13.16l-.2.19-.19.19a.43.43,0,0,0-.51,0,.66.66,0,0,0,0,1.08,10.58,10.58,0,0,0-.86,3.3,4.56,4.56,0,0,0-.9,3.08c.25,5.71-.51,11.33-.13,17.08s.43,11.35,1.29,16.91c.36,2.32,1.15,4.55,1.33,6.89.21,2.61.1,5.23.29,7.84.21,3,.55,5.91,1,8.83,0,.16-.08.31-.11.48-2.77,15.78-5.82,32.62-3.14,48.59,1.31,7.79,3.77,15.31,5.81,22.92s2.8,15.42,4.38,23.15a4.85,4.85,0,0,0,.74,1.79,9.36,9.36,0,0,0,.06,1.3,6.52,6.52,0,0,0,.68,2.49q-.25,10.74-.81,21.47v.26c-.21.62-.43,1.24-.65,1.86a4.14,4.14,0,0,0-.05,2.51,3.77,3.77,0,0,0-.14.58,66.63,66.63,0,0,1-3.55,14.11,3.76,3.76,0,0,0-.2,1.9,5.45,5.45,0,0,0-.52,2.18,5.51,5.51,0,0,0-.79,1.66,4.37,4.37,0,0,0-2.3,1.43,46.79,46.79,0,0,0-20.68,12.7,1.32,1.32,0,0,0-1.09.15,44.85,44.85,0,0,0-5.33,4.09q-1.2,1.06-2.31,2.22a5.18,5.18,0,0,0-1.6,2.63,58.47,58.47,0,0,1-7.66,4.27,1.52,1.52,0,0,0-.54,2.06,1.48,1.48,0,0,0,1.73.65,1.41,1.41,0,0,0,1.49.49c.39-.09.77-.21,1.16-.31l-1,.71h0a1.21,1.21,0,0,0-1.55,0q-2.41,1.72-4.69,3.6a1.78,1.78,0,0,0-.8.38,21.28,21.28,0,0,0-3.36,3.28l-.1.15-.24.19a5,5,0,0,0-2.09,4.15c-.12,1.44,1.66,1.77,2.56,1.06q3.5-2.74,7.13-5.28l0,.05a1.37,1.37,0,0,0,.49.31c-.21.22-.41.44-.62.65-2.34,2.26-5.47,3.39-8.16,5.16a1.38,1.38,0,0,0-.57,0l-.35.15a1.62,1.62,0,0,0-.51.5c-.18.23-.38.44-.58.65a1.35,1.35,0,0,0-.55.23L202,524.37a1.51,1.51,0,0,0,.76,2.79c2.57,0,5-1,7.32-1.95s4.58-1.9,6.81-3q1.5-.72,3-1.5c-2.47,3-5.77,5.22-7.57,8.72a1.73,1.73,0,0,0-.16.67c-2.48,2.21-4.67,4.67-5.41,8.07a1.54,1.54,0,0,0,1.05,1.85,1.51,1.51,0,0,0,1.84-1,9.47,9.47,0,0,1,.63-1.86c.07,0,.15-.08.22-.14a60,60,0,0,0,6.37-7c.75-.6,1.48-1.2,2.17-1.81a1.24,1.24,0,0,0,.35-.55,1.48,1.48,0,0,0,1.18-.72,52.12,52.12,0,0,1,3.23-5.21,1.61,1.61,0,0,0,.69-.37,116.73,116.73,0,0,0,12.36-13.09,1.37,1.37,0,0,0,.23-.19c2.28-2.29,5.43-3.24,8.33-4.46,1.13-.47,2.22-1,3.29-1.59a1.63,1.63,0,0,0,.64-.07,32.66,32.66,0,0,0,11.89-7l.46-.26a4.87,4.87,0,0,0,1.93-2.19,32.84,32.84,0,0,0,2.38-3h0c4.42-5.33,8.63-11.19,8.8-18.36,2.32-2.63,2.68-6.61,2.91-10.31a4.73,4.73,0,0,0,1.58-3.54l.28-11.5a5.76,5.76,0,0,0,.51-1.09c2-6,1.2-12.21,2-18.35a3.13,3.13,0,0,0,0-.53,4.73,4.73,0,0,0,1-3c.06-5.73.06-11.47.17-17.2.09-4.84,1-9.57,1.25-14.39C285,383,283.79,374.85,282.84,366.68Z"/><path d="M305,193.48a1.63,1.63,0,0,0-.23.11c-4.4,3-7.16,7.9-10.21,12.17l-.92,1.35a1.34,1.34,0,0,0-1,.69l-.15.32a1.27,1.27,0,0,0-.58.39,16.45,16.45,0,0,0-2.11,2.94,1.41,1.41,0,0,0-.14,1.15c-.14.18-.3.35-.45.53a7.59,7.59,0,0,0-.78.92l0,0q-1.81,2.13-3.71,4.2a1.43,1.43,0,0,0-.41,1.21c-.11.17-.23.32-.34.49a1.46,1.46,0,0,0,1.28,2.21,4.4,4.4,0,0,1,2.21-2c.31-.42.64-.82,1-1.22a38.87,38.87,0,0,0,3.65-3.83,21,21,0,0,0,1.68-2.21,1.8,1.8,0,0,0,.79-.4A28.42,28.42,0,0,0,300,206c1.41-2.24,3.39-4.09,4.58-6.47a1.78,1.78,0,0,0,.16-.81,2,2,0,0,0,.14.25,4.44,4.44,0,0,1,.46-.75,2.75,2.75,0,0,1,.15-.36,3.69,3.69,0,0,1,1-1.61l0,0a4.22,4.22,0,0,1,.34-.71,1.55,1.55,0,0,1,0-.21,3.65,3.65,0,0,1,.59-1.86l.07-.15,0-.06.4-.51.26-.34c.08-.21.2-.41.3-.61s0-.24.05-.35A4.46,4.46,0,0,0,305,193.48Z"/><path d="M159.69,199.46a38.78,38.78,0,0,1-4.56-.51,19.61,19.61,0,0,0-4.24-.66,47,47,0,0,0-6.09.73,1.27,1.27,0,0,0-1-.39l-3.95.44a1.37,1.37,0,0,0-1-.38c-1.67,0-3.34,0-5,0a1.49,1.49,0,0,0-1.16.56h-.34A31.06,31.06,0,0,1,140,194c4.11-1.85,8.86-1.61,12.73-4.07a1.47,1.47,0,0,0,.64-.84l0,0a1.14,1.14,0,0,0,.48.31,1.15,1.15,0,0,0,.58.13l.4,0a1.59,1.59,0,0,0,.66-.39l.24-.3a1.57,1.57,0,0,0,.2-.76V188a1,1,0,0,0-.06-.39l.13-.2a1.53,1.53,0,0,0-.69-1.7l-.1-.05a1.38,1.38,0,0,0-1.9.41,15.28,15.28,0,0,1-2.45.32c-1,.14-2.06.26-3.08.42a20.08,20.08,0,0,0-5.44,1.56c-1.84.86-3.5,2.05-5.39,2.83s-3.73,1.53-5.53,2.49a95.77,95.77,0,0,0-9,5.48,1.23,1.23,0,0,0-1,.16l-1.63,1.21a1.65,1.65,0,0,0-.72,1.1c-.73.59-1.48,1.16-2.24,1.71l-.08,0c-.42.24-.84.46-1.27.67a2.79,2.79,0,0,0-.88-.24,1.48,1.48,0,0,0-1.44,1.1.41.41,0,0,0,0,.11q-.93.33-1.92.6a1.33,1.33,0,0,0-.65.4c-5.33.34-12,5.52-15.21,9-2.46,2.68-4.21,6.09-6.4,9a30.48,30.48,0,0,0-5,9,6.68,6.68,0,0,0-.2.8,6,6,0,0,0-1.11,2.31,82.75,82.75,0,0,0-1.83,14.08,6.84,6.84,0,0,0-.41,3.24l0,0a6,6,0,0,0-1.54,2.65,12.44,12.44,0,0,0-.31,3.11,4.47,4.47,0,0,0,.49,2.25c-.9,3.77-1.79,7.53-1.47,11.38,0,.17,0,.34.06.51-.49,2-1,3.94-1.48,5.92-2.41,9.67-5,19.3-5.67,29.29,0,.16,0,.31,0,.46a6.13,6.13,0,0,0-.54,2.18c-.73,10.21.43,20.19.34,30.34a5.74,5.74,0,0,0,.94,3.32l-.16.82a7,7,0,0,0,1,5.16c.2,1.28.42,2.55.63,3.83a4.47,4.47,0,0,0,1,2.17,5.79,5.79,0,0,0,.42,1.4A6,6,0,0,0,75.4,361,5.43,5.43,0,0,0,77.83,364a4.64,4.64,0,0,1,1.11-1.31,6.06,6.06,0,0,0,.75,0,4.21,4.21,0,0,0,.51,0,4.59,4.59,0,0,1,4.66-3.63h.19c0-.14.11-.28.15-.42a5,5,0,0,1,2.19-.47h0a4.52,4.52,0,0,1,4.37-2.78l.44,0a4.35,4.35,0,0,1,2-1.21,4.46,4.46,0,0,1,1.9-.84,4.39,4.39,0,0,1,2.37-2,4.13,4.13,0,0,1,.71-.95,6,6,0,0,0-2.76-.73c-.24,0-.49,0-.73,0a6.3,6.3,0,0,0-1.37-6,18.9,18.9,0,0,0,2.17-2.94c.85-1.46,1-3.61,2.53-4.6a5.81,5.81,0,0,0,2.73-4.46,6.28,6.28,0,0,0-.07-3.76c0-.13,0-.27,0-.4a12.06,12.06,0,0,0,0-1.59l-.17-1.28a6,6,0,0,0-.33-5.68,5.41,5.41,0,0,0,0-2.3,17.39,17.39,0,0,0-.09-4.46c-.36-3.14.19-6.33-.33-9.46-1-6.29-2.77-13.08-2.85-19.51a5.81,5.81,0,0,0-1-3.22,6,6,0,0,0-.25-2.16c-1-3.33-.48-7.26-.51-10.7l-.12-12.26c-.06-6.56-.56-13.12,1-19.51A6.36,6.36,0,0,0,98.21,232a6.63,6.63,0,0,0,1.86-.13c6-1.27,15.08-4,18.06-9.93,0-.09.07-.19.12-.29a1.46,1.46,0,0,0,1.22-.7l.39-.58.17,0c.78-.27,1.33-.86,2.08-1.14a6.72,6.72,0,0,1,2.28-.18l6,0,11.78,0a1.41,1.41,0,0,0,1-.41c1.29.23,2.59.44,3.89.6,1.91.23,1.9-2.78,0-3-4.77-.57-9.43-1.89-14.23-2.29-3.27-.27-6.57-.11-9.86-.23h0a3.19,3.19,0,0,0,.76-.61c0-.05.07-.1.11-.14,2-.53,4.06-.94,6.07-1.37l.13-.05c1.08-.07,2.15-.11,3.22-.1a36.35,36.35,0,0,1,4.82.86,27.72,27.72,0,0,0,5,.11,1.64,1.64,0,0,0,.65-.16,1.6,1.6,0,0,0,.58.15,72.79,72.79,0,0,1,9.27,1,1.54,1.54,0,0,0,1.84-1.05,1.51,1.51,0,0,0-1-1.84c-1.24-.22-2.48-.39-3.72-.55a1.27,1.27,0,0,0-1-.94,30.79,30.79,0,0,0-7.24-.41,1.28,1.28,0,0,0-1.32-.81c-1.57.06-3.14,0-4.71,0l-.33-.09a1.18,1.18,0,0,0-.51-.23l-.44-.06a1.76,1.76,0,0,0-1.24.25c-1.47-.1-2.94-.21-4.4-.34-1.7-.16-3.42-.27-5.11-.48a11.47,11.47,0,0,1-1.75-.32c.6-.22,1.19-.47,1.78-.7a1.72,1.72,0,0,0,.53-.11,1.55,1.55,0,0,0,.56.11,1.36,1.36,0,0,0,1.1-.5,12.38,12.38,0,0,1,1.36.06,1.58,1.58,0,0,0,1.06-.44l.09-.11c4.07-.43,8.16-.71,12.25-.93,6.25-.32,12.54-.38,18.72-1.44C161.85,202.11,161.27,199.58,159.69,199.46Z"/></g><g id="Contorno"><path d="M308.63,191.83a3.77,3.77,0,0,0-2.71.87,15.75,15.75,0,0,0-2.2,2.13c-1.42,1.54-2.79,3.12-4.13,4.71-2.69,3.2-5.24,6.52-7.65,9.93s-4.67,6.93-6.77,10.54-4,7.32-6,11.06c-3.86,7.46-7.74,15.08-13.1,21.75a51.28,51.28,0,0,1-9.09,8.94,36,36,0,0,1-11.24,5.83l-.16-.48a36.45,36.45,0,0,0,8.16-4.44,48.53,48.53,0,0,0,6.94-6.19,68.07,68.07,0,0,0,5.79-7.31c1.75-2.58,3.36-5.26,4.89-8,3.05-5.48,5.79-11.16,8.83-16.73a130.08,130.08,0,0,1,10.27-16c2.24-3,5.1-6.45,8.16-9.75,1.53-1.65,3.09-3.26,4.63-4.74a13,13,0,0,1,2.48-2,4.09,4.09,0,0,1,3-.61Z"/><path d="M308.77,191.94q-2.47,4.89-5.13,9.69a89.23,89.23,0,0,1-5.78,9.45A39.84,39.84,0,0,1,290,219a87,87,0,0,1-9.21,6.06l-.29-.41c4.19-3.52,8.53-6.89,12.21-10.8s6.43-8.55,9.44-13.13c1.77-2.67,4.32-6.51,6.23-9Z"/><path d="M307.55,191.81a192.57,192.57,0,0,0-16.83-15.27,56.66,56.66,0,0,0-19.83-10.24c-7.23-2-14.84-2.5-22.41-3s-15.18-.72-22.77-.72l0-.5q8.52-.68,17.14-.67c5.74,0,11.47.18,17.23.74a60,60,0,0,1,17,3.92,57.49,57.49,0,0,1,14.78,9.07,107.36,107.36,0,0,1,8.42,7.88c2.84,2.92,5.54,5.95,7.69,8.45Z"/><path d="M226.17,162.82a28.24,28.24,0,0,1-8.13,7.87,47.57,47.57,0,0,1-10.28,4.91c-3.59,1.25-7.22,2.24-10.89,3.17a80.88,80.88,0,0,1-11.22,2,46.13,46.13,0,0,1-11.5-.18,45.12,45.12,0,0,1-11-3.25c-7-3-13.22-7.39-19.29-11.73l.28-.41c4.8,2.89,9.59,5.81,14.61,8.24a52,52,0,0,0,15.72,5.06,54.29,54.29,0,0,0,16.47-.68c2.74-.49,5.46-1.09,8.17-1.76s5.42-1.35,8.06-2.17a49.56,49.56,0,0,0,10.21-4.31,29.88,29.88,0,0,0,8.38-7.09Z"/><path d="M144.48,165.8q-9.51.28-19,.37l-9.55,0c-3.18,0-6.38-.07-9.52,0a37.48,37.48,0,0,0-9.18,1.15,54.84,54.84,0,0,0-8.74,3.32,72.46,72.46,0,0,0-15.83,10.19l-.34-.37a61,61,0,0,1,11.19-9,60.28,60.28,0,0,1,6.35-3.51,44.2,44.2,0,0,1,6.82-2.65c4.78-1.42,9.78-1.38,14.52-1.27s9.53.22,14.27.38c5.57.2,13.57.5,19.06.9Z"/><path d="M73.29,180.45a15.18,15.18,0,0,0,0,6.74,29.23,29.23,0,0,0,2.3,6.41c1,2.08,2.09,4.14,3.11,6.26s2,4.25,2.94,6.41q2.77,6.48,4.94,13.2c1.44,4.45,2.47,9,5.36,12.64l-.37.33c-2.59-2.48-4.15-5.85-5.44-9.11s-2.52-6.52-3.84-9.76-2.66-6.46-4.06-9.65-2.9-6.31-4.26-9.59a28.68,28.68,0,0,1-1.92-6.93,14.59,14.59,0,0,1,.72-7.1Z"/><path d="M91.41,230.85c4.68,5.6,8,12.27,10.66,19.08,1.33,3.41,2.51,6.87,3.64,10.33a96.66,96.66,0,0,1,3,10.61,56.86,56.86,0,0,1,.94,11.06c0,3.65,0,7.29,0,10.94a102.85,102.85,0,0,1-2.44,21.72l-.49-.1c1.64-10.73,1.13-21.63.86-32.54a73.69,73.69,0,0,0-.53-8.05,54,54,0,0,0-1.75-7.82c-1.56-5.19-3.11-10.43-4.87-15.51a100,100,0,0,0-4-10.07A66.81,66.81,0,0,0,91,231.16Z"/><path d="M248.54,263.79a180.28,180.28,0,0,0-8.28,19.53,64.64,64.64,0,0,0-2.55,10.19c-.56,3.44-.75,7-1.27,10.59a39.82,39.82,0,0,1-1.1,5.36,49,49,0,0,1-1.82,5.15c-1.38,3.35-3,6.52-4.52,9.73-.74,1.6-1.45,3.2-2.08,4.84s-1.12,3.32-1.71,5a18.46,18.46,0,0,1-2.41,4.9,9,9,0,0,1-4.29,3.35l-.18-.47a9.84,9.84,0,0,0,4.85-5.69c.94-2.41,1.39-5.05,2.26-7.64,1.69-5.17,4.21-9.95,6.13-14.84a42.75,42.75,0,0,0,2.26-7.47c.51-2.55.78-5.18,1.08-7.84a64.85,64.85,0,0,1,1.3-8,63.4,63.4,0,0,1,2.37-7.73c2.15-5.95,6.39-13.89,9.52-19.2Z"/><path d="M159.85,44.85a17.31,17.31,0,0,1,.79-9.73A18,18,0,0,1,163,30.75l.78-1,.86-.93.93-.86c.41-.32.44-.35.59-.48l-.09-.22-.06-.12-.1-.27c-.13-.36-.25-.73-.35-1.1a11.73,11.73,0,0,1-.44-2.29,9.45,9.45,0,0,1,.69-4.68,8,8,0,0,1,1.31-2.06,7.11,7.11,0,0,1,1.9-1.54,1.92,1.92,0,0,0,.57-.45.56.56,0,0,0,0-.39,16.51,16.51,0,0,0-1-1.78,3.29,3.29,0,0,1-.38-1.45,2.69,2.69,0,0,1,.49-1.54A4.26,4.26,0,0,1,171.09,8a9.92,9.92,0,0,1,2.43-.26,7.37,7.37,0,0,0,1.93-.22,10.34,10.34,0,0,0,3.24-2.33,9.46,9.46,0,0,1,2-1.41,5.43,5.43,0,0,1,2.63-.53c1.69.08,3.08.54,4.15.29s2.21-1.13,3.6-1.92A12,12,0,0,1,195.66.06a7.55,7.55,0,0,1,5,1.08,6,6,0,0,1,1.89,1.91,11.49,11.49,0,0,1,.53,1,1,1,0,0,0,.32.39,3.91,3.91,0,0,0,1.62.22,8.37,8.37,0,0,1,1.26.11,6.26,6.26,0,0,1,1.28.37,6.49,6.49,0,0,1,3.65,3.67,6.59,6.59,0,0,1,.42,2.59v.33c0,.1,0,.28,0,.22v.06h.07a3.85,3.85,0,0,1,.4,0,8.23,8.23,0,0,1,.86,0,7.54,7.54,0,0,1,3.24.94,6.68,6.68,0,0,1,2.46,2.38,7.26,7.26,0,0,1,.42,6.54,6.59,6.59,0,0,1-2.11,2.64,7.29,7.29,0,0,1-3.05,1.32,7.18,7.18,0,0,1-1.67.1H212l-.07,0-.16,0s0,.13,0,.2l.1.67c.1.75.18,1.5.21,2.27a14.13,14.13,0,0,1-.49,4.6,9.33,9.33,0,0,1-2.42,4,7.7,7.7,0,0,1-2,1.39c-.18.09-.38.16-.56.24a2.46,2.46,0,0,1-.29.09l-.22.07a2.74,2.74,0,0,1-.5.07,2,2,0,0,0,.15.43l.3.93.24,1.1.13,1.11a13.08,13.08,0,0,1-.41,4.41,12.36,12.36,0,0,1-4.89,7.1l-.29-.4a11.81,11.81,0,0,0,4.32-6.91,12.57,12.57,0,0,0,.21-4.1l-.16-1-.26-1-.17-.48-.09-.24a4,4,0,0,0-.16-.39c-.22-.5-.5-1-.69-1.54.58-.07,1.18-.16,1.78-.28l.3-.1.23-.08c.14-.08.29-.13.44-.21a6.44,6.44,0,0,0,1.56-1.2,7.72,7.72,0,0,0,1.93-3.46,12.46,12.46,0,0,0,.32-4.1c0-.7-.14-1.4-.26-2.1l-.27-1.52c-.13-.64-.29-1.34-.38-1.95a16.16,16.16,0,0,0,2.7.62,5.77,5.77,0,0,0,1.24-.1,5.44,5.44,0,0,0,2.25-1,4.85,4.85,0,0,0,1.83-4.31,4.82,4.82,0,0,0-2.47-3.94,5.56,5.56,0,0,0-2.34-.64c-.2,0-.4,0-.6,0a2.26,2.26,0,0,0-.33,0,3.63,3.63,0,0,0-.72.16c-1,.37-2.24.92-3.2,1.32l.85-1.91.42-1a7.48,7.48,0,0,0,.22-.84l0-.27a1,1,0,0,1,0-.17v-.34a3.68,3.68,0,0,0-.06-.66,4.14,4.14,0,0,0-1.2-2.31A4.43,4.43,0,0,0,205.84,7a10.54,10.54,0,0,0-1.51-.09,4.3,4.3,0,0,1-2.14-.55,3,3,0,0,1-.93-.93,7.9,7.9,0,0,1-.44-.86,3.49,3.49,0,0,0-.73-1,4.69,4.69,0,0,0-2.36-1.21,8.29,8.29,0,0,0-5.61,1.25c-.89.48-1.78,1.18-3,1.71a5.82,5.82,0,0,1-2,.48,8.61,8.61,0,0,1-1.87-.12,9.26,9.26,0,0,0-2.95-.22A5.39,5.39,0,0,0,180,6.77a18,18,0,0,1-2.77,2.14,6,6,0,0,1-1.87.65,10.34,10.34,0,0,1-1.8.11,14.45,14.45,0,0,0-1.53.07,3,3,0,0,0-1.17.42,1.61,1.61,0,0,0-.69.75,1.13,1.13,0,0,0,.13.91,19.29,19.29,0,0,1,1,1.84,2.3,2.3,0,0,1,0,1.6,2.43,2.43,0,0,1-1,1.18c-.37.24-.67.38-.92.55a5.63,5.63,0,0,0-.73.58,6.35,6.35,0,0,0-1.18,1.55,7.79,7.79,0,0,0-.87,4,11.58,11.58,0,0,0,.31,2.17,16,16,0,0,0,.89,2.61L166.34,29c-.3.27-.63.53-.93.82a16,16,0,0,0-1.65,1.84,17.36,17.36,0,0,0-2.41,4.24,17,17,0,0,0-1,8.86Z"/><path d="M202.12,54a19.16,19.16,0,0,1,6.07,6.61,51.05,51.05,0,0,1,3.71,8.19,34,34,0,0,1,1.88,18,51.65,51.65,0,0,1-6.1,17,132.54,132.54,0,0,1-9.88,14.82l-.42-.28c4.51-7.6,9.25-15.18,12.1-23.45a46,46,0,0,0,2.57-12.71,34.42,34.42,0,0,0-.31-6.42,39.81,39.81,0,0,0-1.51-6.3,55.49,55.49,0,0,0-3.15-8.18,19.93,19.93,0,0,0-5.25-6.8Z"/><path d="M201.56,113a124.71,124.71,0,0,0-.18,14.84,36.9,36.9,0,0,0,3.61,14,43.85,43.85,0,0,0,8.57,11.75,66.22,66.22,0,0,0,11.65,9.08l-.24.43a47.94,47.94,0,0,1-17.89-13.78A34.56,34.56,0,0,1,199.61,128a81.64,81.64,0,0,1,1.45-15Z"/><path d="M134.51,104.76a3.71,3.71,0,0,1-2.46-1,8.78,8.78,0,0,1-1.69-2A40.74,40.74,0,0,1,128,97.37a36.12,36.12,0,0,1-2.86-9.75,33.25,33.25,0,0,1,.08-10.25,31.28,31.28,0,0,1,3.35-9.74A28,28,0,0,1,135,59.56a47.69,47.69,0,0,1,8.47-5.65c2.94-1.62,5.9-3.1,8.72-4.8A32.38,32.38,0,0,0,159.83,43l.39.31c-3,4.12-7.3,7-11.56,9.63s-8.68,5-12.27,8.25a28.85,28.85,0,0,0-7.88,11.93,32.23,32.23,0,0,0-1.64,14.29,37.41,37.41,0,0,0,2.27,9.51,39.32,39.32,0,0,0,2.13,4.68c.78,1.4,1.89,2.61,3.24,2.69Z"/><path d="M144.82,132.9l-.58,4.14a7.25,7.25,0,0,0,.06,3.86,4.34,4.34,0,0,0,2.82,2.16,11.19,11.19,0,0,0,3.89.37,19.15,19.15,0,0,0,7.62-2.34,35.85,35.85,0,0,0,3.51-2.11l.86-.59,1.18-.82,3.41-2.45c-.14.92-.3,1.82-.42,2.78-.06.47-.15,1-.19,1.41,0,.11,0,.22,0,.33v.54a23.11,23.11,0,0,0,.21,2.46c.21,1.67.53,3.4.61,5.23a10.65,10.65,0,0,1-1.06,5.56,11.31,11.31,0,0,1-3.92,4c-1.52,1-3.06,1.75-4.58,2.57l-4.56,2.43q-4.57,2.4-9.17,4.75l-.25-.44q4.35-2.78,8.75-5.48l4.42-2.7c1.47-.9,3-1.75,4.33-2.7a9.69,9.69,0,0,0,3.16-3.39,8.75,8.75,0,0,0,.72-4.5c-.09-1.63-.41-3.31-.63-5.06a23.42,23.42,0,0,1-.22-2.69v-.43h0v0c.89-.64-2.34,1.63-4.38,2.66a22.51,22.51,0,0,1-7.3,2.51,15,15,0,0,1-4.72,0,7.15,7.15,0,0,1-4.69-2.56,4.37,4.37,0,0,1-.78-2.71,13.4,13.4,0,0,1,.38-2.49c.37-1.55.71-3,1-4.35Z"/><path d="M134.5,104.56a87.49,87.49,0,0,1-5.62,10.51c-1.19,1.76-1.76,3-.41,3.36.37.13.87.22,1.36.34l1.45.34c1,.24,1.93.49,2.89.77l-.07.5c-1.5,0-3,0-4.48,0a6.38,6.38,0,0,1-2.53-.44,2.56,2.56,0,0,1-1.21-1.26,3.18,3.18,0,0,1-.26-1.61,5.8,5.8,0,0,1,1-2.5l1.21-1.88c.81-1.24,1.66-2.46,2.53-3.66,1-1.4,2.52-3.41,3.7-4.69Z"/><path d="M134.21,119.74a2.68,2.68,0,0,1,.41,1.61,5.83,5.83,0,0,1-.31,1.58,6.3,6.3,0,0,0-.57,2.53,1.34,1.34,0,0,0,.38.77,2.21,2.21,0,0,0,.83.51,3.74,3.74,0,0,0,1.11.18c1,0,2.06-.11,3.09-.17l-.26,1.15a3.92,3.92,0,0,1-.4,1.18,4,4,0,0,1-.39.65l-.35.54a2.06,2.06,0,0,0-.18.39,1.62,1.62,0,0,0,.82,1.53,6.53,6.53,0,0,0,2.6.76,8.31,8.31,0,0,1,3.1.88l-.19.46a10.07,10.07,0,0,0-3,0,6.74,6.74,0,0,1-3.41-.44,3.75,3.75,0,0,1-1.55-1.33,3.05,3.05,0,0,1-.49-2.21,3.33,3.33,0,0,1,.38-1l0-.1s0,0,0,0h0s0,0,0,0a5.77,5.77,0,0,1-1.68-.39,4,4,0,0,1-1.52-1.11,3.16,3.16,0,0,1-.73-1.87,6.2,6.2,0,0,1,1.15-3.2,3.46,3.46,0,0,0,.62-2.52Z"/><path d="M209.1,371.33c-.28,1.36.59,2.6,1.52,3.64s2.06,2.1,3,3.27a43.29,43.29,0,0,1,4.85,7.5c2.74,5.29,4.74,10.86,7.29,16.06s5.84,10,8.94,15q2.32,3.75,4.64,7.49a7.74,7.74,0,0,1,1.52,4.38,3.4,3.4,0,0,1-1.05,2.2,2.34,2.34,0,0,1-2.3.64l.13-.48a2,2,0,0,0,2.14-1.48,3.46,3.46,0,0,0-.37-2.78,25.27,25.27,0,0,0-1.78-2.67l-1.91-2.69c-2.54-3.62-5.07-7.21-7.51-10.93-1.2-1.87-2.37-3.78-3.42-5.76s-2-4-2.85-6.07c-1.73-4.09-3.23-8.21-5-12.14A46.22,46.22,0,0,0,212.6,379c-.87-1.28-1.89-2.38-2.83-3.63a7.14,7.14,0,0,1-1.09-2,3.48,3.48,0,0,1-.06-2.16Z"/><path d="M232.78,425.73a30,30,0,0,1,5.17,4.11,26.9,26.9,0,0,1,2.24,2.51,5.89,5.89,0,0,1,1.39,3.48,3.27,3.27,0,0,1-.76,2.06,5.24,5.24,0,0,1-1.56,1.22c-1,.54-2,1-3,1.49a48.83,48.83,0,0,1-6.18,2.54,24.77,24.77,0,0,1-6.7,1.22,18.2,18.2,0,0,1-6.77-1.06,63.61,63.61,0,0,1-6.09-2.59,21.37,21.37,0,0,1-5.57-3.58l.31-.39c2.63,1.86,5.75,2.76,8.83,3.87a36.06,36.06,0,0,0,4.59,1.33,17.42,17.42,0,0,0,4.61.31,29.66,29.66,0,0,0,9.14-2.29c1.49-.59,3-1.25,4.45-1.92a18,18,0,0,0,2-1,1.65,1.65,0,0,0,.86-1.28,4.23,4.23,0,0,0-.79-2.41,30.74,30.74,0,0,0-2-2.67,39.77,39.77,0,0,0-4.54-4.55Z"/><path d="M205.55,437a29.39,29.39,0,0,1-11.89,5.46,39.55,39.55,0,0,1-13.2.57c-8.82-1.07-17-4.55-24.64-8.42l.19-.46a180.37,180.37,0,0,0,18.46,5.61,50.39,50.39,0,0,0,18.85,1,35.85,35.85,0,0,0,6.16-1.5,34.61,34.61,0,0,0,5.78-2.63Z"/><path d="M156.78,434.65A54.48,54.48,0,0,1,140,437.78a19.5,19.5,0,0,1-8.71-1.34,23.15,23.15,0,0,1-6.82-5.34l.32-.38a49.14,49.14,0,0,0,5.32,3.27,15.3,15.3,0,0,0,5.74,1.53,55.57,55.57,0,0,0,6.19,0q3.14-.12,6.25-.4c2.44-.18,5.94-.66,8.37-1Z"/><path d="M125.74,431.18a42.73,42.73,0,0,1-26.88-3.8c-.84-.4-1.64-.88-2.45-1.33a18,18,0,0,0-2.27-1.2c-1.41-.61-3-.34-4.87-.13a42.1,42.1,0,0,1-5.61.21,48.38,48.38,0,0,1-21.21-6.12c-.82-.43-1.59-.9-2.4-1.38a5,5,0,0,1-1.25-1,2.44,2.44,0,0,1-.61-1.85,2.68,2.68,0,0,1,.88-1.62,7,7,0,0,1,1.25-.88c.82-.45,1.57-.86,2.32-1.35a32.07,32.07,0,0,0,7.91-7.16l.4.29a30.71,30.71,0,0,1-5.42,6.2,31.37,31.37,0,0,1-3.31,2.52c-.59.39-1.21.73-1.67,1.08s-.81.79-.79,1.08.19.61.66.94,1.1.62,1.68.94c1.19.63,2.4,1.2,3.63,1.75a52.27,52.27,0,0,0,7.55,2.71,43,43,0,0,0,15.78,1.51,15.63,15.63,0,0,1,4.36-.1,11.9,11.9,0,0,1,4,1.85,42.17,42.17,0,0,0,7.12,3.54,43.84,43.84,0,0,0,4.85,1.59,45.92,45.92,0,0,0,16.24,1.24Z"/><path d="M101.47,349.91c-4.93,3.93-10.74,6.53-16,9.7a94.28,94.28,0,0,0-14.84,11.16,165.92,165.92,0,0,0-13,13.36c-2.07,2.34-4.09,4.71-6.1,7.1L45.9,397.9l3.54,5.45c1.33,2,2.41,4.19,4.51,4.63a7.79,7.79,0,0,0,3.29-.06c1.14-.22,2.25-.59,3.43-.9a13.06,13.06,0,0,1,3.64-.51,5.42,5.42,0,0,1,3.49,1.24l-.32.39a4.84,4.84,0,0,0-3.16-.89,12.47,12.47,0,0,0-3.38.69c-1.1.36-2.24.82-3.44,1.11a8.91,8.91,0,0,1-3.83.25,5.81,5.81,0,0,1-1.91-.75,7.32,7.32,0,0,1-1.5-1.31c-.86-1-1.49-2-2.19-3l-4.53-6.48,4.27-5.38c1.28-1.6,2.57-3.2,3.89-4.78,2.63-3.17,5.32-6.29,8.14-9.3a110.75,110.75,0,0,1,18.61-16.26,91.53,91.53,0,0,1,11.42-6.42,87.39,87.39,0,0,0,11.3-6.15Z"/><path d="M135.24,358.26A107.13,107.13,0,0,1,145.63,317l.46.18c-2.92,10.21-5.76,20.47-8.07,30.77-.71,3-1.59,7.38-2.28,10.38Z"/><path d="M177.7,327a133.6,133.6,0,0,1-3.84,20.37,67.13,67.13,0,0,1-8.44,19l-.44-.25c4.12-9.41,6.86-19.32,9.47-29.24.79-2.91,1.85-7.1,2.76-10Z"/><path d="M145.25,317.17a34.33,34.33,0,0,1,17.33.61,33.86,33.86,0,0,1,14.84,9l-.32.38a54.38,54.38,0,0,0-23.33-9l-2-.22-2.22-.16-2.22-.06c-.71,0-1.4,0-2,0Z"/><path d="M135.15,357.85a22.82,22.82,0,0,0,6.87,4.22,45.14,45.14,0,0,0,7.68,2.53A69.12,69.12,0,0,0,166,366.22l.06.49a37.85,37.85,0,0,1-12.62.76,32.32,32.32,0,0,1-12.15-3.81,27.49,27.49,0,0,1-3.57-2.37,13.79,13.79,0,0,1-2.91-3.12Z"/><path d="M140.66,356.25a179.7,179.7,0,0,1,8.82-34.06l.48.13a180.21,180.21,0,0,1-6,25.7c-.77,2.45-1.88,6-2.82,8.35Z"/><path d="M172.84,328.51c-3.62,11.27-7.45,22.41-11.69,33.46l-.48-.13a107.31,107.31,0,0,1,7.76-25.53,88.64,88.64,0,0,1,3.95-8Z"/><path d="M140.92,355.6a43.61,43.61,0,0,1,20.25,5.62l-.17.47a124.27,124.27,0,0,1-15.19-3.89c-1.46-.47-3.56-1.11-5-1.71Z"/><path d="M149.35,322.53a24.71,24.71,0,0,1,12.28.35,24.31,24.31,0,0,1,10.6,6.2l-.3.4a54,54,0,0,0-16.62-5.79c-1.69-.31-4.17-.52-5.92-.66Z"/><path d="M177.15,330a59.06,59.06,0,0,1,9.74.86c1.62.27,3.22.62,4.82,1a27.61,27.61,0,0,1,4.78,1.59,6.2,6.2,0,0,1,2.19,1.75,7.81,7.81,0,0,1,1.24,2.46,49.44,49.44,0,0,1,1.15,4.86q.47,2.43.75,4.89a23.77,23.77,0,0,1,.21,5.1,10.19,10.19,0,0,1-2,5,21.47,21.47,0,0,1-3.56,3.68,41.63,41.63,0,0,1-4,3.06,9.68,9.68,0,0,1-5,1.67,14.1,14.1,0,0,1-5-1c-1.56-.57-3-1.18-4.56-1.78l-9-3.64L169,359c4.64,1.41,9.3,2.92,13.9,4.4,2.27.69,4.58,1.06,6.57.22s3.79-2.5,5.62-4.06a14.79,14.79,0,0,0,4.22-5.25c.81-2,.57-4.3.32-6.7s-.61-4.77-1.09-7.12a17,17,0,0,0-.88-3.31,4.38,4.38,0,0,0-2-2.19,25.11,25.11,0,0,0-4.17-1.61c-1.56-.5-3.21-1-4.87-1.35a73,73,0,0,0-9.51-1.59Z"/><path d="M198.62,336.56c3.06-.78,6.28-.06,9.17,1s5.65,2.4,8.49,3a23.51,23.51,0,0,1,2.32.52,3.9,3.9,0,0,1,1.31.7,3,3,0,0,1,.93,1.32,5.52,5.52,0,0,1,.12,2.77c-.15.81-.27,1.47-.36,2.22-.37,2.92-.32,6.05-1.07,9.19a25.05,25.05,0,0,1-3.89,8.67,24.33,24.33,0,0,1-3.08,3.63,16.25,16.25,0,0,1-1.86,1.58,5.77,5.77,0,0,1-2.48,1,6,6,0,0,1-2.63-.29,19.39,19.39,0,0,1-2.2-.91c-1.39-.63-2.78-1.29-4.15-2q-4.11-2-8.06-4.33l.23-.44q6.22,2.82,12.59,5.28a11.2,11.2,0,0,0,3.05.9,3.48,3.48,0,0,0,2.54-.84,19.59,19.59,0,0,0,2.32-2.25,26.53,26.53,0,0,0,2-2.61,24.38,24.38,0,0,0,2.88-5.89,26.59,26.59,0,0,0,1.26-6.47c.11-1.12.2-2.27.34-3.43a33.33,33.33,0,0,1,.58-3.44,4.72,4.72,0,0,0,.11-1.4,1.31,1.31,0,0,0-.41-.89,7.52,7.52,0,0,0-2.79-1c-2.72-.71-5.64-2.29-8.56-3.58s-6-2.06-8.6-1.65Z"/><path d="M143.68,322.19a129.61,129.61,0,0,1-14.59-.58,46.78,46.78,0,0,1-14.26-3.75c-1.13-.5-2.23-1-3.33-1.56a16.06,16.06,0,0,0-3.12-1.33,1.55,1.55,0,0,0-1.87,1,6.1,6.1,0,0,0-.22,3.09,17,17,0,0,1-1.13,7.61,36.6,36.6,0,0,1-3.46,6.67c-1.31,2.08-2.66,4.08-3.8,6.15s-2.17,4.24-2.09,6.31a3.09,3.09,0,0,0,1.1,2.43,5.11,5.11,0,0,0,2.87.84c1.12.06,2.38,0,3.61.06s2.45.07,3.67.15a97.81,97.81,0,0,1,28.58,6l-.16.47a110.4,110.4,0,0,0-21.29-4.22c-3.6-.34-7.22-.52-10.84-.5l-2.73,0a12,12,0,0,1-3-.29A5.08,5.08,0,0,1,94.8,349a5.5,5.5,0,0,1-1.1-3.15,12.18,12.18,0,0,1,1.45-5.77,47.21,47.21,0,0,1,2.75-4.88c2-3.11,4-6.07,5.25-9.34a16.15,16.15,0,0,0,1.1-5c0-.83,0-1.66-.09-2.65a6.5,6.5,0,0,1,.52-3.14,4.17,4.17,0,0,1,1.11-1.43,3.32,3.32,0,0,1,1.78-.71,6,6,0,0,1,3.11.8c1.65.84,3.24,1.68,4.85,2.45a41.94,41.94,0,0,0,6.36,2.49,53.46,53.46,0,0,0,7.37,1.64c5.07.79,10.23,1,14.43,1.33Z"/><path d="M122.33,206.32a87.69,87.69,0,0,1,16.33-2.71c5.51-.47,11-.67,16.52-1l4.11-.27a1,1,0,0,0,1-.66.51.51,0,0,0-.07-.43,1.28,1.28,0,0,0-.54-.34,12,12,0,0,0-1.89-.4l-2-.34c-1.35-.17-2.7-.4-4.07-.51a82.92,82.92,0,0,0-16.37-.15c-10.85,1-21.61,4.29-30.63,10.39-1.15.72-2.21,1.58-3.31,2.37s-2.14,1.68-3.12,2.62a57.92,57.92,0,0,0-5.67,5.84,51.24,51.24,0,0,0-8.31,13.87C80,244.63,81.1,256,78.94,267c-1,5.5-2.21,10.9-3.38,16.29s-2.23,10.78-3,16.23a203.32,203.32,0,0,0-2.06,32.89,140.33,140.33,0,0,0,1.12,16.42c.83,5.37,2.47,10.76,5.88,15.05l-.39.31a28.32,28.32,0,0,1-5.49-11.14,68.75,68.75,0,0,1-1.9-12.32,193.47,193.47,0,0,1-.43-24.91A195.48,195.48,0,0,1,72,291c1.43-8.23,3.49-16.28,4.84-24.41.7-4.07,1.12-8.13,1.42-12.27a100.73,100.73,0,0,1,1.48-12.49,50.88,50.88,0,0,1,11.16-22.55A59.1,59.1,0,0,1,110.84,204,69.84,69.84,0,0,1,135,197.75a83.63,83.63,0,0,1,16,.28,84.83,84.83,0,0,1,8.6,1.39,3.86,3.86,0,0,1,1.23.54,1.91,1.91,0,0,1,.82,1.46,2.08,2.08,0,0,1-.57,1.51,2.36,2.36,0,0,1-1.35.7,5.66,5.66,0,0,1-.61.05l-.55,0-1.11.06-2.2.1c-5.89.24-11.75.34-17.32.71a87.76,87.76,0,0,0-15.46,2.22Z"/><path d="M98.72,232.42a31.46,31.46,0,0,0-2,11.88c0,4.07.07,8.19.12,12.27A196.76,196.76,0,0,0,98.46,281c.55,4,1.42,8,2.18,12.06a79.93,79.93,0,0,1,1.48,12.35c.18,4.13.12,8.23.11,12.33L102.11,330h-.5c-.37-6.12-.67-12.26-.94-18.4-.14-3.07-.31-6.13-.63-9.16s-.86-6-1.47-9-1.28-6-1.81-9.09-.91-6.16-1.16-9.25a184.49,184.49,0,0,1-.48-18.49c.08-3.61.17-8,.39-12.36a43.69,43.69,0,0,1,.82-6.46,22.72,22.72,0,0,1,1.94-5.58Z"/><path d="M118.38,200.87a103,103,0,0,1,15.06-9.45,70.94,70.94,0,0,1,16.81-6.26c.74-.16,1.48-.3,2.22-.44s1.42-.27,2.32-.34a4.36,4.36,0,0,1,1.48.15,2.55,2.55,0,0,1,1.48,1.15,2.66,2.66,0,0,1,.28,1.8,3.16,3.16,0,0,1-.72,1.48A5.44,5.44,0,0,1,155,190.4c-.73.27-1.46.51-2.2.71-1.47.41-3,.7-4.4,1a40.2,40.2,0,0,0-8.4,2.2,28.16,28.16,0,0,0-7.41,4.5l-.35-.36a26.68,26.68,0,0,1,11.45-7c2.17-.67,4.36-1.11,6.48-1.65,1.05-.27,2.09-.57,3.09-.93a6,6,0,0,0,2.42-1.27,1,1,0,0,0,.22-.71c-.05-.16-.05-.18-.3-.27a3.11,3.11,0,0,0-1.19,0l-1.6.27q-3.21.6-6.35,1.51A90.15,90.15,0,0,0,134.23,193c-2.34,1.05-5.16,2.43-7.91,3.91s-5.46,3.05-7.65,4.36Z"/><path d="M121.63,206.7c5.87-.22,11.77-.37,17.7-.1,3,.14,5.93.39,8.89.78,1.48.2,2.94.44,4.43.72a6,6,0,0,1,2.49,1,3.56,3.56,0,0,1,1,1.21,2.88,2.88,0,0,1,.28,1.75,3.41,3.41,0,0,1-2,2.44,5.6,5.6,0,0,1-2.69.38c-1.57-.13-3-.33-4.47-.52-2.93-.4-5.83-.86-8.73-1.18-5.77-.65-11.7-.72-17.21,1.24l-.2-.46a31.07,31.07,0,0,1,13.09-2.71,105.08,105.08,0,0,1,13.33,1l3.28.36a5.63,5.63,0,0,0,2.7-.12,1.49,1.49,0,0,0,.67-.61.63.63,0,0,0,0-.61c-.25-.51-1-.86-2-1.06a117.18,117.18,0,0,0-13-1.85c-5.11-.52-12.51-.81-17.61-1.17Z"/><path d="M120.8,214.1a77.36,77.36,0,0,1,21.12-.32c.88.11,1.76.24,2.64.37s1.7.26,2.68.49a3.5,3.5,0,0,1,2.65,2.28,2.45,2.45,0,0,1-.39,2.11,3.24,3.24,0,0,1-1.52,1.14,5.34,5.34,0,0,1-1.59.3l-1.35.06-2.64.07c-1.77,0-3.53.06-5.3.06-3.52,0-7-.07-10.57-.22a16.8,16.8,0,0,0-2.47,0,4.39,4.39,0,0,0-2,.74,23.71,23.71,0,0,0-2,1.55c-.71.57-1.43,1.11-2.17,1.62-6,4.08-12.87,6.13-19.56,8.06l-.16-.48a106.13,106.13,0,0,0,14.35-6.27,38.16,38.16,0,0,0,6.32-4.4,12.47,12.47,0,0,1,3.48-2.48,11,11,0,0,1,4.3-.47q7.89.18,15.77.11l3.9-.07a2.52,2.52,0,0,0,1.33-.32.82.82,0,0,0,.3-.33.39.39,0,0,0,0-.28,1,1,0,0,0-.24-.4,1.51,1.51,0,0,0-.5-.34,8.17,8.17,0,0,0-1.69-.45c-1.27-.27-2.54-.5-3.82-.71a86.67,86.67,0,0,0-10.4-1.07,101.16,101.16,0,0,0-10.44.13Z"/><path d="M253.67,263c-2.57,8.63-2.8,17.74-2,26.68s2.26,17.89,3.08,27a109.26,109.26,0,0,1,.5,13.67c-.13,4.57-.54,9.11-1,13.62-.92,9-2,18-1.42,26.93s2.88,17.69,5.17,26.44c1.15,4.38,2.31,8.78,3.24,13.24a123.61,123.61,0,0,1-4.55,67.14l-.48-.16a127,127,0,0,0,6.1-39.84,129.55,129.55,0,0,0-1.73-20.14,201.08,201.08,0,0,0-4.63-19.75,181.17,181.17,0,0,1-4.56-20,88,88,0,0,1-.57-20.57c.52-6.81,1.45-13.54,2-20.25.3-3.36.51-6.71.53-10.06s-.12-6.7-.4-10.05c-.53-7.87-2-17.43-2.57-27.09a88.1,88.1,0,0,1,.17-14.28,59.11,59.11,0,0,1,2.65-12.64Z"/><path d="M279.52,229.18c1.51,33,1.54,66.34-.07,99.3H279c-.61-24.72-.57-49.75-.35-74.46.09-7.25.19-17.66.42-24.82Z"/><path d="M280,324.94a443.13,443.13,0,0,1,1,125.68c-1.48,10.43-3.69,21-8.45,30.59a54.31,54.31,0,0,1-9.05,13.2,37.47,37.47,0,0,1-6.13,5.24,37,37,0,0,1-7.18,3.65c-2.45,1-4.91,1.87-7.26,2.93a65.25,65.25,0,0,0-6.83,3.69c-4.42,2.73-8.62,5.87-13,8.81-2.19,1.47-4.4,2.91-6.72,4.17-1.14.67-2.34,1.22-3.52,1.81s-2.42,1.08-3.68,1.49-2.52.79-3.8,1.15a6.21,6.21,0,0,1-2.07.17,2.31,2.31,0,0,1-1.91-1.12,1.8,1.8,0,0,1-.19-1.16,2.38,2.38,0,0,1,.47-1,4.74,4.74,0,0,1,1.62-1.31A13.75,13.75,0,0,0,205,522a2.34,2.34,0,0,0,1.1-1.33l.49.12a2.65,2.65,0,0,1-.87,1.36,6.09,6.09,0,0,1-1.28.83c-.44.24-.89.44-1.26.69a4.1,4.1,0,0,0-1,.92,1.48,1.48,0,0,0-.31,1.11,1.17,1.17,0,0,0,.67.84,4,4,0,0,0,2.61,0,43.6,43.6,0,0,0,10.66-4.61c6.73-3.94,12.72-9.08,19.41-13.37a61,61,0,0,1,10.62-5.48c3.67-1.48,7.3-2.86,10.43-5a38.8,38.8,0,0,0,8.26-8,56.59,56.59,0,0,0,6.1-9.85A87.41,87.41,0,0,0,277.5,458c1.42-7.69,2.29-15.52,3.12-23.33s1.44-15.64,1.84-23.46.67-15.66.68-23.47c.07-9.18-.18-20.36-.85-31.49S280.54,334,279.46,325Z"/><path d="M257.43,475.61a8.15,8.15,0,0,1-4,2.74c-.75.29-1.51.53-2.26.78s-1.44.56-2.17.84a39,39,0,0,0-8,4.67c-5,3.7-9.43,8.24-14.33,12.35a59.48,59.48,0,0,1-7.81,5.68l-2.12,1.19c-.7.34-1.15.7-1.19.95s.08.73.49,1a2.49,2.49,0,0,0,1.65.33,13.44,13.44,0,0,0,2.16-.45c.73-.21,1.46-.44,2.18-.71a24.67,24.67,0,0,0,4.12-2,25,25,0,0,0,6.86-6.2l.41.28a24.38,24.38,0,0,1-10.8,9.41,26.05,26.05,0,0,1-3.47,1.25,8.13,8.13,0,0,1-2,.31,3.91,3.91,0,0,1-2.24-.63,3.18,3.18,0,0,1-1.36-2.12,2.55,2.55,0,0,1,.22-1.44,3.07,3.07,0,0,1,.83-1,13.79,13.79,0,0,1,1.66-1.06l1.5-.88c7.9-4.93,14.22-12.24,22.18-17.65a37.91,37.91,0,0,1,8.61-4.42c.82-.25,1.63-.56,2.45-.75s1.6-.4,2.34-.62a7.47,7.47,0,0,0,3.68-2.11Z"/><path d="M216.05,508.49a28.06,28.06,0,0,0-8,6.83c-.28.33-.54.68-.8,1a8.44,8.44,0,0,0-.67,1c-.38.65-.48,1.42-.31,1.59a.52.52,0,0,0,.38.23,1.43,1.43,0,0,0,.75-.08,10.85,10.85,0,0,0,2-1.33c3.13-2.18,6.59-3.47,9.78-5s6.25-3.4,8.25-6.36l.44.24a15.92,15.92,0,0,1-5.5,6.22,61.11,61.11,0,0,1-7.17,4.07c-1.19.62-2.35,1.25-3.46,1.94-.56.35-1.08.71-1.61,1.1a8,8,0,0,1-2,1.18,3.21,3.21,0,0,1-2.93-.34,2.53,2.53,0,0,1-.94-1.4,3.12,3.12,0,0,1,0-1.49,6,6,0,0,1,1.09-2.17c.45-.56.89-1.09,1.37-1.6a25.35,25.35,0,0,1,4.27-3.62,21.3,21.3,0,0,1,4.91-2.5Z"/><path d="M219.84,521.5a100.53,100.53,0,0,0-10.8,13c-.78,1.16-1.72,2.33-1.84,3.31a1.4,1.4,0,0,0,0,.65,1.51,1.51,0,0,0,.29.53c.29.27.4.28.71.16a4.88,4.88,0,0,0,1.21-1.17l1.39-1.62,2.79-3.23q11.2-12.87,23-25.11l.38.32c-5.22,6.7-10.64,13.3-16.18,19.79q-4.16,4.88-8.39,9.66L211.39,539c-.36.4-.68.79-1.14,1.24a3.48,3.48,0,0,1-2,1A2.41,2.41,0,0,1,207,541a2.8,2.8,0,0,1-1-.76,3.39,3.39,0,0,1-.77-2.09,4.38,4.38,0,0,1,.49-2,18.6,18.6,0,0,1,1.9-2.77,82.14,82.14,0,0,1,5.63-6.52,68.24,68.24,0,0,1,6.28-5.79Z"/></g></g></svg>